<svg xmlns="http://www.w3.org/2000/svg" width="228" height="626"><defs><clipPath id="b"><path fill="none" d="M0 0h228v625.603H0z"/></clipPath><clipPath id="a"><path d="M0 0h228v626H0z"/></clipPath></defs><g clip-path="url(#a)"><g clip-path="url(#b)"><g transform="translate(0 431.222)"><circle cx="7.591" cy="7.591" r="7.591" fill="#f2f2f2"/><circle cx="2.457" cy="2.457" r="2.457" transform="translate(5.134 5.134)" fill="#959595"/><g transform="translate(35.47)"><circle cx="7.591" cy="7.591" r="7.591" fill="#f2f2f2"/><circle cx="2.457" cy="2.457" r="2.457" transform="translate(5.134 5.134)" fill="#959595"/></g><g transform="translate(70.939)"><circle cx="7.591" cy="7.591" r="7.591" fill="#f2f2f2"/><circle cx="2.457" cy="2.457" r="2.457" transform="translate(5.134 5.134)" fill="#959595"/></g><g transform="translate(106.409)"><circle cx="7.591" cy="7.591" r="7.591" fill="#f2f2f2"/><circle cx="2.457" cy="2.457" r="2.457" transform="translate(5.134 5.134)" fill="#959595"/></g><g transform="translate(141.879)"><circle cx="7.591" cy="7.591" r="7.591" fill="#f2f2f2"/><circle cx="2.457" cy="2.457" r="2.457" transform="translate(5.134 5.134)" fill="#959595"/></g><g transform="translate(177.349)"><circle cx="7.591" cy="7.591" r="7.591" fill="#f2f2f2"/><circle cx="2.457" cy="2.457" r="2.457" transform="translate(5.134 5.134)" fill="#959595"/></g><g transform="translate(212.818)"><circle cx="7.591" cy="7.591" r="7.591" fill="#f2f2f2"/><circle cx="2.457" cy="2.457" r="2.457" transform="translate(5.134 5.134)" fill="#959595"/></g><g transform="translate(0 35.286)"><circle cx="7.591" cy="7.591" r="7.591" fill="#f2f2f2"/><circle cx="2.457" cy="2.457" r="2.457" transform="translate(5.134 5.134)" fill="#959595"/></g><g transform="translate(35.47 35.286)"><circle cx="7.591" cy="7.591" r="7.591" fill="#f2f2f2"/><circle cx="2.457" cy="2.457" r="2.457" transform="translate(5.134 5.134)" fill="#959595"/></g><g transform="translate(70.939 35.286)"><circle cx="7.591" cy="7.591" r="7.591" fill="#f2f2f2"/><circle cx="2.457" cy="2.457" r="2.457" transform="translate(5.134 5.134)" fill="#959595"/></g><g transform="translate(106.409 35.286)"><circle cx="7.591" cy="7.591" r="7.591" fill="#f2f2f2"/><circle cx="2.457" cy="2.457" r="2.457" transform="translate(5.134 5.134)" fill="#959595"/></g><g transform="translate(141.879 35.286)"><circle cx="7.591" cy="7.591" r="7.591" fill="#f2f2f2"/><circle cx="2.457" cy="2.457" r="2.457" transform="translate(5.134 5.134)" fill="#959595"/></g><g transform="translate(177.349 35.286)"><circle cx="7.591" cy="7.591" r="7.591" fill="#f2f2f2"/><circle cx="2.457" cy="2.457" r="2.457" transform="translate(5.134 5.134)" fill="#959595"/></g><g transform="translate(212.818 35.286)"><circle cx="7.591" cy="7.591" r="7.591" fill="#f2f2f2"/><circle cx="2.457" cy="2.457" r="2.457" transform="translate(5.134 5.134)" fill="#959595"/></g><g transform="translate(0 71.956)"><circle cx="7.591" cy="7.591" r="7.591" fill="#f2f2f2"/><circle cx="2.457" cy="2.457" r="2.457" transform="translate(5.134 5.134)" fill="#959595"/></g><g transform="translate(35.47 71.956)"><circle cx="7.591" cy="7.591" r="7.591" fill="#f2f2f2"/><circle cx="2.457" cy="2.457" r="2.457" transform="translate(5.134 5.134)" fill="#959595"/></g><g transform="translate(70.939 71.956)"><circle cx="7.591" cy="7.591" r="7.591" fill="#f2f2f2"/><circle cx="2.457" cy="2.457" r="2.457" transform="translate(5.134 5.134)" fill="#959595"/></g><g transform="translate(106.409 71.956)"><circle cx="7.591" cy="7.591" r="7.591" fill="#f2f2f2"/><circle cx="2.457" cy="2.457" r="2.457" transform="translate(5.134 5.134)" fill="#959595"/></g><g transform="translate(141.879 71.956)"><circle cx="7.591" cy="7.591" r="7.591" fill="#f2f2f2"/><circle cx="2.457" cy="2.457" r="2.457" transform="translate(5.134 5.134)" fill="#959595"/></g><g transform="translate(177.349 71.956)"><circle cx="7.591" cy="7.591" r="7.591" fill="#f2f2f2"/><circle cx="2.457" cy="2.457" r="2.457" transform="translate(5.134 5.134)" fill="#959595"/></g><g transform="translate(212.818 71.956)"><circle cx="7.591" cy="7.591" r="7.591" fill="#f2f2f2"/><circle cx="2.457" cy="2.457" r="2.457" transform="translate(5.134 5.134)" fill="#959595"/></g><g transform="translate(0 107.243)"><circle cx="7.591" cy="7.591" r="7.591" fill="#f2f2f2"/><circle cx="2.457" cy="2.457" r="2.457" transform="translate(5.134 5.134)" fill="#959595"/></g><g transform="translate(35.47 107.243)"><circle cx="7.591" cy="7.591" r="7.591" fill="#f2f2f2"/><circle cx="2.457" cy="2.457" r="2.457" transform="translate(5.134 5.134)" fill="#959595"/></g><g transform="translate(70.939 107.243)"><circle cx="7.591" cy="7.591" r="7.591" fill="#f2f2f2"/><circle cx="2.457" cy="2.457" r="2.457" transform="translate(5.134 5.134)" fill="#959595"/></g><g transform="translate(106.409 107.243)"><circle cx="7.591" cy="7.591" r="7.591" fill="#f2f2f2"/><circle cx="2.457" cy="2.457" r="2.457" transform="translate(5.134 5.134)" fill="#959595"/></g><g transform="translate(141.879 107.243)"><circle cx="7.591" cy="7.591" r="7.591" fill="#f2f2f2"/><circle cx="2.457" cy="2.457" r="2.457" transform="translate(5.134 5.134)" fill="#959595"/></g><g transform="translate(177.349 107.243)"><circle cx="7.591" cy="7.591" r="7.591" fill="#f2f2f2"/><circle cx="2.457" cy="2.457" r="2.457" transform="translate(5.134 5.134)" fill="#959595"/></g><g transform="translate(212.818 107.243)"><circle cx="7.591" cy="7.591" r="7.591" fill="#f2f2f2"/><circle cx="2.457" cy="2.457" r="2.457" transform="translate(5.134 5.134)" fill="#959595"/></g><g transform="translate(0 143.913)"><circle cx="7.591" cy="7.591" r="7.591" fill="#f2f2f2"/><circle cx="2.457" cy="2.457" r="2.457" transform="translate(5.134 5.134)" fill="#959595"/></g><g transform="translate(35.47 143.913)"><circle cx="7.591" cy="7.591" r="7.591" fill="#f2f2f2"/><circle cx="2.457" cy="2.457" r="2.457" transform="translate(5.134 5.134)" fill="#959595"/></g><g transform="translate(70.939 143.913)"><circle cx="7.591" cy="7.591" r="7.591" fill="#f2f2f2"/><circle cx="2.457" cy="2.457" r="2.457" transform="translate(5.134 5.134)" fill="#959595"/></g><g transform="translate(106.409 143.913)"><circle cx="7.591" cy="7.591" r="7.591" fill="#f2f2f2"/><circle cx="2.457" cy="2.457" r="2.457" transform="translate(5.134 5.134)" fill="#959595"/></g><g transform="translate(141.879 143.913)"><circle cx="7.591" cy="7.591" r="7.591" fill="#f2f2f2"/><circle cx="2.457" cy="2.457" r="2.457" transform="translate(5.134 5.134)" fill="#959595"/></g><g transform="translate(177.349 143.913)"><circle cx="7.591" cy="7.591" r="7.591" fill="#f2f2f2"/><circle cx="2.457" cy="2.457" r="2.457" transform="translate(5.134 5.134)" fill="#959595"/></g><g transform="translate(212.818 143.913)"><circle cx="7.591" cy="7.591" r="7.591" fill="#f2f2f2"/><circle cx="2.457" cy="2.457" r="2.457" transform="translate(5.134 5.134)" fill="#959595"/></g><g transform="translate(0 179.199)"><circle cx="7.591" cy="7.591" r="7.591" fill="#f2f2f2"/><circle cx="2.457" cy="2.457" r="2.457" transform="translate(5.134 5.134)" fill="#959595"/></g><g transform="translate(35.47 179.199)"><circle cx="7.591" cy="7.591" r="7.591" fill="#f2f2f2"/><circle cx="2.457" cy="2.457" r="2.457" transform="translate(5.134 5.134)" fill="#959595"/></g><g transform="translate(70.939 179.199)"><circle cx="7.591" cy="7.591" r="7.591" fill="#f2f2f2"/><circle cx="2.457" cy="2.457" r="2.457" transform="translate(5.134 5.134)" fill="#959595"/></g><g transform="translate(106.409 179.199)"><circle cx="7.591" cy="7.591" r="7.591" fill="#f2f2f2"/><circle cx="2.457" cy="2.457" r="2.457" transform="translate(5.134 5.134)" fill="#959595"/></g><g transform="translate(141.879 179.199)"><circle cx="7.591" cy="7.591" r="7.591" fill="#f2f2f2"/><circle cx="2.457" cy="2.457" r="2.457" transform="translate(5.134 5.134)" fill="#959595"/></g><g transform="translate(177.349 179.199)"><circle cx="7.591" cy="7.591" r="7.591" fill="#f2f2f2"/><circle cx="2.457" cy="2.457" r="2.457" transform="translate(5.134 5.134)" fill="#959595"/></g><g transform="translate(212.818 179.199)"><circle cx="7.591" cy="7.591" r="7.591" fill="#f2f2f2"/><circle cx="2.457" cy="2.457" r="2.457" transform="translate(5.134 5.134)" fill="#959595"/></g></g><g transform="translate(0 215.611)"><circle cx="7.591" cy="7.591" r="7.591" fill="#f2f2f2"/><circle cx="2.457" cy="2.457" r="2.457" transform="translate(5.134 5.134)" fill="#959595"/><g transform="translate(35.47)"><circle cx="7.591" cy="7.591" r="7.591" fill="#f2f2f2"/><circle cx="2.457" cy="2.457" r="2.457" transform="translate(5.134 5.134)" fill="#959595"/></g><g transform="translate(70.939)"><circle cx="7.591" cy="7.591" r="7.591" fill="#f2f2f2"/><circle cx="2.457" cy="2.457" r="2.457" transform="translate(5.134 5.134)" fill="#959595"/></g><g transform="translate(106.409)"><circle cx="7.591" cy="7.591" r="7.591" fill="#f2f2f2"/><circle cx="2.457" cy="2.457" r="2.457" transform="translate(5.134 5.134)" fill="#959595"/></g><g transform="translate(141.879)"><circle cx="7.591" cy="7.591" r="7.591" fill="#f2f2f2"/><circle cx="2.457" cy="2.457" r="2.457" transform="translate(5.134 5.134)" fill="#959595"/></g><g transform="translate(177.349)"><circle cx="7.591" cy="7.591" r="7.591" fill="#f2f2f2"/><circle cx="2.457" cy="2.457" r="2.457" transform="translate(5.134 5.134)" fill="#959595"/></g><g transform="translate(212.818)"><circle cx="7.591" cy="7.591" r="7.591" fill="#f2f2f2"/><circle cx="2.457" cy="2.457" r="2.457" transform="translate(5.134 5.134)" fill="#959595"/></g><g transform="translate(0 35.286)"><circle cx="7.591" cy="7.591" r="7.591" fill="#f2f2f2"/><circle cx="2.457" cy="2.457" r="2.457" transform="translate(5.134 5.134)" fill="#959595"/></g><g transform="translate(35.47 35.286)"><circle cx="7.591" cy="7.591" r="7.591" fill="#f2f2f2"/><circle cx="2.457" cy="2.457" r="2.457" transform="translate(5.134 5.134)" fill="#959595"/></g><g transform="translate(70.939 35.286)"><circle cx="7.591" cy="7.591" r="7.591" fill="#f2f2f2"/><circle cx="2.457" cy="2.457" r="2.457" transform="translate(5.134 5.134)" fill="#959595"/></g><g transform="translate(106.409 35.286)"><circle cx="7.591" cy="7.591" r="7.591" fill="#f2f2f2"/><circle cx="2.457" cy="2.457" r="2.457" transform="translate(5.134 5.134)" fill="#959595"/></g><g transform="translate(141.879 35.286)"><circle cx="7.591" cy="7.591" r="7.591" fill="#f2f2f2"/><circle cx="2.457" cy="2.457" r="2.457" transform="translate(5.134 5.134)" fill="#959595"/></g><g transform="translate(177.349 35.286)"><circle cx="7.591" cy="7.591" r="7.591" fill="#f2f2f2"/><circle cx="2.457" cy="2.457" r="2.457" transform="translate(5.134 5.134)" fill="#959595"/></g><g transform="translate(212.818 35.286)"><circle cx="7.591" cy="7.591" r="7.591" fill="#f2f2f2"/><circle cx="2.457" cy="2.457" r="2.457" transform="translate(5.134 5.134)" fill="#959595"/></g><g transform="translate(0 71.956)"><circle cx="7.591" cy="7.591" r="7.591" fill="#f2f2f2"/><circle cx="2.457" cy="2.457" r="2.457" transform="translate(5.134 5.134)" fill="#959595"/></g><g transform="translate(35.47 71.956)"><circle cx="7.591" cy="7.591" r="7.591" fill="#f2f2f2"/><circle cx="2.457" cy="2.457" r="2.457" transform="translate(5.134 5.134)" fill="#959595"/></g><g transform="translate(70.939 71.956)"><circle cx="7.591" cy="7.591" r="7.591" fill="#f2f2f2"/><circle cx="2.457" cy="2.457" r="2.457" transform="translate(5.134 5.134)" fill="#959595"/></g><g transform="translate(106.409 71.956)"><circle cx="7.591" cy="7.591" r="7.591" fill="#f2f2f2"/><circle cx="2.457" cy="2.457" r="2.457" transform="translate(5.134 5.134)" fill="#959595"/></g><g transform="translate(141.879 71.956)"><circle cx="7.591" cy="7.591" r="7.591" fill="#f2f2f2"/><circle cx="2.457" cy="2.457" r="2.457" transform="translate(5.134 5.134)" fill="#959595"/></g><g transform="translate(177.349 71.956)"><circle cx="7.591" cy="7.591" r="7.591" fill="#f2f2f2"/><circle cx="2.457" cy="2.457" r="2.457" transform="translate(5.134 5.134)" fill="#959595"/></g><g transform="translate(212.818 71.956)"><circle cx="7.591" cy="7.591" r="7.591" fill="#f2f2f2"/><circle cx="2.457" cy="2.457" r="2.457" transform="translate(5.134 5.134)" fill="#959595"/></g><g transform="translate(0 107.243)"><circle cx="7.591" cy="7.591" r="7.591" fill="#f2f2f2"/><circle cx="2.457" cy="2.457" r="2.457" transform="translate(5.134 5.134)" fill="#959595"/></g><g transform="translate(35.47 107.243)"><circle cx="7.591" cy="7.591" r="7.591" fill="#f2f2f2"/><circle cx="2.457" cy="2.457" r="2.457" transform="translate(5.134 5.134)" fill="#959595"/></g><g transform="translate(70.939 107.243)"><circle cx="7.591" cy="7.591" r="7.591" fill="#f2f2f2"/><circle cx="2.457" cy="2.457" r="2.457" transform="translate(5.134 5.134)" fill="#959595"/></g><g transform="translate(106.409 107.243)"><circle cx="7.591" cy="7.591" r="7.591" fill="#f2f2f2"/><circle cx="2.457" cy="2.457" r="2.457" transform="translate(5.134 5.134)" fill="#959595"/></g><g transform="translate(141.879 107.243)"><circle cx="7.591" cy="7.591" r="7.591" fill="#f2f2f2"/><circle cx="2.457" cy="2.457" r="2.457" transform="translate(5.134 5.134)" fill="#959595"/></g><g transform="translate(177.349 107.243)"><circle cx="7.591" cy="7.591" r="7.591" fill="#f2f2f2"/><circle cx="2.457" cy="2.457" r="2.457" transform="translate(5.134 5.134)" fill="#959595"/></g><g transform="translate(212.818 107.243)"><circle cx="7.591" cy="7.591" r="7.591" fill="#f2f2f2"/><circle cx="2.457" cy="2.457" r="2.457" transform="translate(5.134 5.134)" fill="#959595"/></g><g transform="translate(0 143.913)"><circle cx="7.591" cy="7.591" r="7.591" fill="#f2f2f2"/><circle cx="2.457" cy="2.457" r="2.457" transform="translate(5.134 5.134)" fill="#959595"/></g><g transform="translate(35.47 143.913)"><circle cx="7.591" cy="7.591" r="7.591" fill="#f2f2f2"/><circle cx="2.457" cy="2.457" r="2.457" transform="translate(5.134 5.134)" fill="#959595"/></g><g transform="translate(70.939 143.913)"><circle cx="7.591" cy="7.591" r="7.591" fill="#f2f2f2"/><circle cx="2.457" cy="2.457" r="2.457" transform="translate(5.134 5.134)" fill="#959595"/></g><g transform="translate(106.409 143.913)"><circle cx="7.591" cy="7.591" r="7.591" fill="#f2f2f2"/><circle cx="2.457" cy="2.457" r="2.457" transform="translate(5.134 5.134)" fill="#959595"/></g><g transform="translate(141.879 143.913)"><circle cx="7.591" cy="7.591" r="7.591" fill="#f2f2f2"/><circle cx="2.457" cy="2.457" r="2.457" transform="translate(5.134 5.134)" fill="#959595"/></g><g transform="translate(177.349 143.913)"><circle cx="7.591" cy="7.591" r="7.591" fill="#f2f2f2"/><circle cx="2.457" cy="2.457" r="2.457" transform="translate(5.134 5.134)" fill="#959595"/></g><g transform="translate(212.818 143.913)"><circle cx="7.591" cy="7.591" r="7.591" fill="#f2f2f2"/><circle cx="2.457" cy="2.457" r="2.457" transform="translate(5.134 5.134)" fill="#959595"/></g><g transform="translate(0 179.199)"><circle cx="7.591" cy="7.591" r="7.591" fill="#f2f2f2"/><circle cx="2.457" cy="2.457" r="2.457" transform="translate(5.134 5.134)" fill="#959595"/></g><g transform="translate(35.47 179.199)"><circle cx="7.591" cy="7.591" r="7.591" fill="#f2f2f2"/><circle cx="2.457" cy="2.457" r="2.457" transform="translate(5.134 5.134)" fill="#959595"/></g><g transform="translate(70.939 179.199)"><circle cx="7.591" cy="7.591" r="7.591" fill="#f2f2f2"/><circle cx="2.457" cy="2.457" r="2.457" transform="translate(5.134 5.134)" fill="#959595"/></g><g transform="translate(106.409 179.199)"><circle cx="7.591" cy="7.591" r="7.591" fill="#f2f2f2"/><circle cx="2.457" cy="2.457" r="2.457" transform="translate(5.134 5.134)" fill="#959595"/></g><g transform="translate(141.879 179.199)"><circle cx="7.591" cy="7.591" r="7.591" fill="#f2f2f2"/><circle cx="2.457" cy="2.457" r="2.457" transform="translate(5.134 5.134)" fill="#959595"/></g><g transform="translate(177.349 179.199)"><circle cx="7.591" cy="7.591" r="7.591" fill="#f2f2f2"/><circle cx="2.457" cy="2.457" r="2.457" transform="translate(5.134 5.134)" fill="#959595"/></g><g transform="translate(212.818 179.199)"><circle cx="7.591" cy="7.591" r="7.591" fill="#f2f2f2"/><circle cx="2.457" cy="2.457" r="2.457" transform="translate(5.134 5.134)" fill="#959595"/></g></g><circle cx="7.591" cy="7.591" r="7.591" fill="#f2f2f2"/><circle cx="2.457" cy="2.457" r="2.457" transform="translate(5.134 5.134)" fill="#959595"/><g transform="translate(35.47)"><circle cx="7.591" cy="7.591" r="7.591" fill="#f2f2f2"/><circle cx="2.457" cy="2.457" r="2.457" transform="translate(5.134 5.134)" fill="#959595"/></g><g transform="translate(70.939)"><circle cx="7.591" cy="7.591" r="7.591" fill="#f2f2f2"/><circle cx="2.457" cy="2.457" r="2.457" transform="translate(5.134 5.134)" fill="#959595"/></g><g transform="translate(106.409)"><circle cx="7.591" cy="7.591" r="7.591" fill="#f2f2f2"/><circle cx="2.457" cy="2.457" r="2.457" transform="translate(5.134 5.134)" fill="#959595"/></g><g transform="translate(141.879)"><circle cx="7.591" cy="7.591" r="7.591" fill="#f2f2f2"/><circle cx="2.457" cy="2.457" r="2.457" transform="translate(5.134 5.134)" fill="#959595"/></g><g transform="translate(177.349)"><circle cx="7.591" cy="7.591" r="7.591" fill="#f2f2f2"/><circle cx="2.457" cy="2.457" r="2.457" transform="translate(5.134 5.134)" fill="#959595"/></g><g transform="translate(212.818)"><circle cx="7.591" cy="7.591" r="7.591" fill="#f2f2f2"/><circle cx="2.457" cy="2.457" r="2.457" transform="translate(5.134 5.134)" fill="#959595"/></g><g transform="translate(0 35.286)"><circle cx="7.591" cy="7.591" r="7.591" fill="#f2f2f2"/><circle cx="2.457" cy="2.457" r="2.457" transform="translate(5.134 5.134)" fill="#959595"/></g><g transform="translate(35.47 35.286)"><circle cx="7.591" cy="7.591" r="7.591" fill="#f2f2f2"/><circle cx="2.457" cy="2.457" r="2.457" transform="translate(5.134 5.134)" fill="#959595"/></g><g transform="translate(70.939 35.286)"><circle cx="7.591" cy="7.591" r="7.591" fill="#f2f2f2"/><circle cx="2.457" cy="2.457" r="2.457" transform="translate(5.134 5.134)" fill="#959595"/></g><g transform="translate(106.409 35.286)"><circle cx="7.591" cy="7.591" r="7.591" fill="#f2f2f2"/><circle cx="2.457" cy="2.457" r="2.457" transform="translate(5.134 5.134)" fill="#959595"/></g><g transform="translate(141.879 35.286)"><circle cx="7.591" cy="7.591" r="7.591" fill="#f2f2f2"/><circle cx="2.457" cy="2.457" r="2.457" transform="translate(5.134 5.134)" fill="#959595"/></g><g transform="translate(177.349 35.286)"><circle cx="7.591" cy="7.591" r="7.591" fill="#f2f2f2"/><circle cx="2.457" cy="2.457" r="2.457" transform="translate(5.134 5.134)" fill="#959595"/></g><g transform="translate(212.818 35.286)"><circle cx="7.591" cy="7.591" r="7.591" fill="#f2f2f2"/><circle cx="2.457" cy="2.457" r="2.457" transform="translate(5.134 5.134)" fill="#959595"/></g><g transform="translate(0 71.956)"><circle cx="7.591" cy="7.591" r="7.591" fill="#f2f2f2"/><circle cx="2.457" cy="2.457" r="2.457" transform="translate(5.134 5.134)" fill="#959595"/></g><g transform="translate(35.47 71.956)"><circle cx="7.591" cy="7.591" r="7.591" fill="#f2f2f2"/><circle cx="2.457" cy="2.457" r="2.457" transform="translate(5.134 5.134)" fill="#959595"/></g><g transform="translate(70.939 71.956)"><circle cx="7.591" cy="7.591" r="7.591" fill="#f2f2f2"/><circle cx="2.457" cy="2.457" r="2.457" transform="translate(5.134 5.134)" fill="#959595"/></g><g transform="translate(106.409 71.956)"><circle cx="7.591" cy="7.591" r="7.591" fill="#f2f2f2"/><circle cx="2.457" cy="2.457" r="2.457" transform="translate(5.134 5.134)" fill="#959595"/></g><g transform="translate(141.879 71.956)"><circle cx="7.591" cy="7.591" r="7.591" fill="#f2f2f2"/><circle cx="2.457" cy="2.457" r="2.457" transform="translate(5.134 5.134)" fill="#959595"/></g><g transform="translate(177.349 71.956)"><circle cx="7.591" cy="7.591" r="7.591" fill="#f2f2f2"/><circle cx="2.457" cy="2.457" r="2.457" transform="translate(5.134 5.134)" fill="#959595"/></g><g transform="translate(212.818 71.956)"><circle cx="7.591" cy="7.591" r="7.591" fill="#f2f2f2"/><circle cx="2.457" cy="2.457" r="2.457" transform="translate(5.134 5.134)" fill="#959595"/></g><g transform="translate(0 107.243)"><circle cx="7.591" cy="7.591" r="7.591" fill="#f2f2f2"/><circle cx="2.457" cy="2.457" r="2.457" transform="translate(5.134 5.134)" fill="#959595"/></g><g transform="translate(35.47 107.243)"><circle cx="7.591" cy="7.591" r="7.591" fill="#f2f2f2"/><circle cx="2.457" cy="2.457" r="2.457" transform="translate(5.134 5.134)" fill="#959595"/></g><g transform="translate(70.939 107.243)"><circle cx="7.591" cy="7.591" r="7.591" fill="#f2f2f2"/><circle cx="2.457" cy="2.457" r="2.457" transform="translate(5.134 5.134)" fill="#959595"/></g><g transform="translate(106.409 107.243)"><circle cx="7.591" cy="7.591" r="7.591" fill="#f2f2f2"/><circle cx="2.457" cy="2.457" r="2.457" transform="translate(5.134 5.134)" fill="#959595"/></g><g transform="translate(141.879 107.243)"><circle cx="7.591" cy="7.591" r="7.591" fill="#f2f2f2"/><circle cx="2.457" cy="2.457" r="2.457" transform="translate(5.134 5.134)" fill="#959595"/></g><g transform="translate(177.349 107.243)"><circle cx="7.591" cy="7.591" r="7.591" fill="#f2f2f2"/><circle cx="2.457" cy="2.457" r="2.457" transform="translate(5.134 5.134)" fill="#959595"/></g><g transform="translate(212.818 107.243)"><circle cx="7.591" cy="7.591" r="7.591" fill="#f2f2f2"/><circle cx="2.457" cy="2.457" r="2.457" transform="translate(5.134 5.134)" fill="#959595"/></g><g transform="translate(0 143.913)"><circle cx="7.591" cy="7.591" r="7.591" fill="#f2f2f2"/><circle cx="2.457" cy="2.457" r="2.457" transform="translate(5.134 5.134)" fill="#959595"/></g><g transform="translate(35.47 143.913)"><circle cx="7.591" cy="7.591" r="7.591" fill="#f2f2f2"/><circle cx="2.457" cy="2.457" r="2.457" transform="translate(5.134 5.134)" fill="#959595"/></g><g transform="translate(70.939 143.913)"><circle cx="7.591" cy="7.591" r="7.591" fill="#f2f2f2"/><circle cx="2.457" cy="2.457" r="2.457" transform="translate(5.134 5.134)" fill="#959595"/></g><g transform="translate(106.409 143.913)"><circle cx="7.591" cy="7.591" r="7.591" fill="#f2f2f2"/><circle cx="2.457" cy="2.457" r="2.457" transform="translate(5.134 5.134)" fill="#959595"/></g><g transform="translate(141.879 143.913)"><circle cx="7.591" cy="7.591" r="7.591" fill="#f2f2f2"/><circle cx="2.457" cy="2.457" r="2.457" transform="translate(5.134 5.134)" fill="#959595"/></g><g transform="translate(177.349 143.913)"><circle cx="7.591" cy="7.591" r="7.591" fill="#f2f2f2"/><circle cx="2.457" cy="2.457" r="2.457" transform="translate(5.134 5.134)" fill="#959595"/></g><g transform="translate(212.818 143.913)"><circle cx="7.591" cy="7.591" r="7.591" fill="#f2f2f2"/><circle cx="2.457" cy="2.457" r="2.457" transform="translate(5.134 5.134)" fill="#959595"/></g><g transform="translate(0 179.199)"><circle cx="7.591" cy="7.591" r="7.591" fill="#f2f2f2"/><circle cx="2.457" cy="2.457" r="2.457" transform="translate(5.134 5.134)" fill="#959595"/></g><g transform="translate(35.47 179.199)"><circle cx="7.591" cy="7.591" r="7.591" fill="#f2f2f2"/><circle cx="2.457" cy="2.457" r="2.457" transform="translate(5.134 5.134)" fill="#959595"/></g><g transform="translate(70.939 179.199)"><circle cx="7.591" cy="7.591" r="7.591" fill="#f2f2f2"/><circle cx="2.457" cy="2.457" r="2.457" transform="translate(5.134 5.134)" fill="#959595"/></g><g transform="translate(106.409 179.199)"><circle cx="7.591" cy="7.591" r="7.591" fill="#f2f2f2"/><circle cx="2.457" cy="2.457" r="2.457" transform="translate(5.134 5.134)" fill="#959595"/></g><g transform="translate(141.879 179.199)"><circle cx="7.591" cy="7.591" r="7.591" fill="#f2f2f2"/><circle cx="2.457" cy="2.457" r="2.457" transform="translate(5.134 5.134)" fill="#959595"/></g><g transform="translate(177.349 179.199)"><circle cx="7.591" cy="7.591" r="7.591" fill="#f2f2f2"/><circle cx="2.457" cy="2.457" r="2.457" transform="translate(5.134 5.134)" fill="#959595"/></g><g transform="translate(212.818 179.199)"><circle cx="7.591" cy="7.591" r="7.591" fill="#f2f2f2"/><circle cx="2.457" cy="2.457" r="2.457" transform="translate(5.134 5.134)" fill="#959595"/></g></g></g></svg>