<svg xmlns="http://www.w3.org/2000/svg" width="308" height="79"><defs><clipPath id="a"><path d="M0 0h308v79H0z"/></clipPath></defs><g clip-path="url(#a)"><g transform="rotate(90 72.41 72.41)"><circle cx="6.91" cy="6.91" r="6.91" fill="#f2f2f2"/><circle cx="2.237" cy="2.237" r="2.237" transform="translate(4.673 4.673)" fill="#959595"/></g><g transform="rotate(90 56.667 88.152)"><circle cx="6.91" cy="6.91" r="6.91" fill="#f2f2f2"/><circle cx="2.237" cy="2.237" r="2.237" transform="translate(4.673 4.673)" fill="#959595"/></g><g transform="rotate(90 40.165 104.654)"><circle cx="6.91" cy="6.91" r="6.91" fill="#f2f2f2"/><circle cx="2.237" cy="2.237" r="2.237" transform="translate(4.673 4.673)" fill="#959595"/></g><g transform="rotate(90 56.35 56.35)"><circle cx="6.91" cy="6.91" r="6.91" fill="#f2f2f2"/><circle cx="2.237" cy="2.237" r="2.237" transform="translate(4.673 4.673)" fill="#959595"/></g><g transform="rotate(90 40.607 72.092)"><circle cx="6.91" cy="6.91" r="6.91" fill="#f2f2f2"/><circle cx="2.237" cy="2.237" r="2.237" transform="translate(4.673 4.673)" fill="#959595"/></g><g transform="rotate(90 24.105 88.594)"><circle cx="6.91" cy="6.91" r="6.91" fill="#f2f2f2"/><circle cx="2.237" cy="2.237" r="2.237" transform="translate(4.673 4.673)" fill="#959595"/></g><g transform="rotate(90 39.66 39.66)"><circle cx="6.91" cy="6.91" r="6.91" fill="#f2f2f2"/><circle cx="2.237" cy="2.237" r="2.237" transform="translate(4.673 4.673)" fill="#959595"/></g><g transform="rotate(90 23.917 55.402)"><circle cx="6.91" cy="6.91" r="6.91" fill="#f2f2f2"/><circle cx="2.237" cy="2.237" r="2.237" transform="translate(4.673 4.673)" fill="#959595"/></g><g transform="rotate(90 7.415 71.904)"><circle cx="6.91" cy="6.91" r="6.91" fill="#f2f2f2"/><circle cx="2.237" cy="2.237" r="2.237" transform="translate(4.673 4.673)" fill="#959595"/></g><g transform="rotate(90 23.6 23.6)"><circle cx="6.91" cy="6.91" r="6.91" fill="#f2f2f2"/><circle cx="2.237" cy="2.237" r="2.237" transform="translate(4.673 4.673)" fill="#959595"/></g><g transform="rotate(90 7.857 39.342)"><circle cx="6.91" cy="6.91" r="6.91" fill="#f2f2f2"/><circle cx="2.237" cy="2.237" r="2.237" transform="translate(4.673 4.673)" fill="#959595"/></g><g transform="rotate(90 -8.645 55.844)"><circle cx="6.91" cy="6.91" r="6.91" fill="#f2f2f2"/><circle cx="2.237" cy="2.237" r="2.237" transform="translate(4.673 4.673)" fill="#959595"/></g><g transform="rotate(90 6.91 6.91)"><circle cx="6.91" cy="6.91" r="6.91" fill="#f2f2f2"/><circle cx="2.237" cy="2.237" r="2.237" transform="translate(4.673 4.673)" fill="#959595"/></g><g transform="rotate(90 -8.833 22.652)"><circle cx="6.91" cy="6.91" r="6.91" fill="#f2f2f2"/><circle cx="2.237" cy="2.237" r="2.237" transform="translate(4.673 4.673)" fill="#959595"/></g><g transform="rotate(90 -25.335 39.154)"><circle cx="6.91" cy="6.91" r="6.91" fill="#f2f2f2"/><circle cx="2.237" cy="2.237" r="2.237" transform="translate(4.673 4.673)" fill="#959595"/></g><g transform="rotate(90 154 154)"><circle cx="6.91" cy="6.91" r="6.91" fill="#f2f2f2"/><circle cx="2.237" cy="2.237" r="2.237" transform="translate(4.673 4.673)" fill="#959595"/></g><g transform="rotate(90 138.235 169.765)"><circle cx="6.91" cy="6.91" r="6.91" fill="#f2f2f2"/><circle cx="2.237" cy="2.237" r="2.237" transform="translate(4.673 4.673)" fill="#959595"/></g><g transform="rotate(90 121.756 186.244)"><circle cx="6.91" cy="6.91" r="6.91" fill="#f2f2f2"/><circle cx="2.237" cy="2.237" r="2.237" transform="translate(4.673 4.673)" fill="#959595"/></g><g transform="rotate(90 137.94 137.94)"><circle cx="6.91" cy="6.91" r="6.91" fill="#f2f2f2"/><circle cx="2.237" cy="2.237" r="2.237" transform="translate(4.673 4.673)" fill="#959595"/></g><g transform="rotate(90 122.175 153.705)"><circle cx="6.91" cy="6.91" r="6.91" fill="#f2f2f2"/><circle cx="2.237" cy="2.237" r="2.237" transform="translate(4.673 4.673)" fill="#959595"/></g><g transform="rotate(90 105.696 170.184)"><circle cx="6.91" cy="6.91" r="6.91" fill="#f2f2f2"/><circle cx="2.237" cy="2.237" r="2.237" transform="translate(4.673 4.673)" fill="#959595"/></g><g transform="rotate(90 121.25 121.25)"><circle cx="6.91" cy="6.91" r="6.91" fill="#f2f2f2"/><circle cx="2.237" cy="2.237" r="2.237" transform="translate(4.673 4.673)" fill="#959595"/></g><g transform="rotate(90 105.485 137.015)"><circle cx="6.91" cy="6.91" r="6.91" fill="#f2f2f2"/><circle cx="2.237" cy="2.237" r="2.237" transform="translate(4.673 4.673)" fill="#959595"/></g><g transform="rotate(90 89.006 153.494)"><circle cx="6.91" cy="6.91" r="6.91" fill="#f2f2f2"/><circle cx="2.237" cy="2.237" r="2.237" transform="translate(4.673 4.673)" fill="#959595"/></g><g transform="rotate(90 105.19 105.19)"><circle cx="6.91" cy="6.91" r="6.91" fill="#f2f2f2"/><circle cx="2.237" cy="2.237" r="2.237" transform="translate(4.673 4.673)" fill="#959595"/></g><g transform="rotate(90 89.425 120.955)"><circle cx="6.91" cy="6.91" r="6.91" fill="#f2f2f2"/><circle cx="2.237" cy="2.237" r="2.237" transform="translate(4.673 4.673)" fill="#959595"/></g><g transform="rotate(90 72.946 137.434)"><circle cx="6.91" cy="6.91" r="6.91" fill="#f2f2f2"/><circle cx="2.237" cy="2.237" r="2.237" transform="translate(4.673 4.673)" fill="#959595"/></g><g transform="rotate(90 88.5 88.5)"><circle cx="6.91" cy="6.91" r="6.91" fill="#f2f2f2"/><circle cx="2.237" cy="2.237" r="2.237" transform="translate(4.673 4.673)" fill="#959595"/></g><g transform="rotate(90 72.735 104.265)"><circle cx="6.91" cy="6.91" r="6.91" fill="#f2f2f2"/><circle cx="2.237" cy="2.237" r="2.237" transform="translate(4.673 4.673)" fill="#959595"/></g><g transform="rotate(90 56.256 120.744)"><circle cx="6.91" cy="6.91" r="6.91" fill="#f2f2f2"/><circle cx="2.237" cy="2.237" r="2.237" transform="translate(4.673 4.673)" fill="#959595"/></g></g></svg>