<svg xmlns="http://www.w3.org/2000/svg" width="960" height="960"><defs><clipPath id="a"><path d="M0 0h960v960H0z"/></clipPath></defs><g fill="none" stroke-dasharray="2 5" clip-path="url(#a)"><path d="M960 480c0 265.1-214.9 480-480 480S0 745.1 0 480 214.9 0 480 0s480 214.9 480 480z"/><path fill="#fff" d="M960 480v.34a88.87 88.87 0 0 1 0 1.21v.65l-150-.67V480h150zm-.05 7.2l-.03 1.5v.26l-.01.45-149.97-2.89.02-1.52 149.99 2.2zm-.16 7.2l-.03 1.06v.13l-.01.12v.12l-.01.12v.2l-.01.13v.1l-.01.22-149.92-5.1.05-1.52 149.94 4.42zm-.27 7.2l-.1 2.2-149.82-7.32.07-1.52 149.85 6.64zm-.37 7.2v.13l-.02.15-.11 1.9-149.7-9.53.1-1.52 149.73 8.86zm-.48 7.17l-.01.23-.01.13v.07l-.05.48v.12a50.07 50.07 0 0 1-.1 1.17L808.97 506.4l.11-1.51 149.6 11.08zm-.58 7.18l-.2 2.19-149.35-14 .14-1.5 149.4 13.31zm-.7 7.17l-.15 1.45-.02.16v.09l-.02.13-.04.36-149.12-16.23.16-1.5 149.2 15.54zm-.8 7.15l-.16 1.34v.04l-.03.2-.07.6-148.86-18.45.18-1.5 148.94 17.77zm-.9 7.15l-.14 1v.02l-.02.14-.02.15v.06l-.04.25v.02l-.08.54-148.57-20.69.2-1.5 148.67 20zm-1.02 7.12a390.67 390.67 0 0 1-.33 2.18L806.1 531l.23-1.5 148.34 22.24zm-1.12 7.12a485.85 485.85 0 0 1-.36 2.16l-147.88-25.14.25-1.48 148 24.46zm-1.22 7.09l-.4 2.16-147.48-27.36.27-1.48 147.6 26.68zm-1.34 7.07l-.43 2.16-147.05-29.58.3-1.48 147.18 28.9zm-1.44 7.06a474.71 474.71 0 0 1-.46 2.15l-146.6-31.8.33-1.47 146.73 31.12zm-1.54 7.03l-.5 2.15-146.1-34.01.35-1.47L948 587.1zm-1.66 7a430.59 430.59 0 0 1-.45 1.84l-.07.3-145.57-36.2.36-1.47 145.73 35.54zm-1.76 7a514.11 514.11 0 0 1-.55 2.11l-145-38.4.38-1.45 145.17 37.73zm-1.86 6.94l-.22.79v.02l-.06.2-.04.15-.03.1-.03.13-.05.14-.03.11-.13.48-144.4-40.59.4-1.45 144.59 39.92zm-1.97 6.93a450.95 450.95 0 0 1-.62 2.1l-143.77-42.76.42-1.45 143.97 42.11zm-2.07 6.9l-.66 2.1-143.1-44.94.44-1.44 143.32 44.28zm-2.18 6.86l-.69 2.09-142.4-47.1.46-1.43 142.63 46.44zm-2.28 6.83l-.07.2-.65 1.88-141.68-49.25.49-1.42 141.9 48.59zm-2.38 6.8a436.01 436.01 0 0 1-.75 2.06l-140.93-51.38.51-1.42 141.17 50.73zm-2.5 6.75v.03a23.07 23.07 0 0 1-.25.65l-.02.06a59.82 59.82 0 0 1-.5 1.31l-140.13-53.5.53-1.41 140.38 52.86zm-2.58 6.72a462.7 462.7 0 0 1-.81 2.04l-139.3-55.61.55-1.4 139.56 54.97zm-2.69 6.67l-.08.2a479.42 479.42 0 0 1-.76 1.84l-138.45-57.71.57-1.4 138.72 57.07zm-2.79 6.64l-.65 1.52-.22.5-137.57-59.8.6-1.38 137.84 59.16zm-2.89 6.6l-.9 2-136.65-61.86.62-1.38 136.93 61.24zm-2.99 6.55a471.76 471.76 0 0 1-.93 2l-135.7-63.93.64-1.36 136 63.29zm-3.08 6.5l-.12.24v.02l-.05.08a491.06 491.06 0 0 1-.8 1.64l-134.72-65.95.66-1.36 135.03 65.33zm-3.19 6.46l-.99 1.96-133.71-67.97.68-1.35 134.02 67.36zm-3.28 6.4l-1.02 1.96-132.68-69.98.7-1.34 133 69.37zm-3.38 6.37l-.03.05a534.44 534.44 0 0 1-1.02 1.88L769.83 638l.72-1.32 131.93 71.36zm-3.47 6.3l-.6 1.09-.05.07-.04.08-.39.68-130.51-73.93.74-1.32 130.85 73.33zm-3.57 6.26l-.25.44-.05.07-.03.06-.42.73-.02.02-.08.14-.11.2-.14.24-129.4-75.89.77-1.3 129.73 75.29zm-3.66 6.2a527.3 527.3 0 0 1-1.13 1.88L762.4 650.85l.78-1.3 128.6 77.24zm-3.75 6.14l-1.17 1.87-127.05-79.74.8-1.28 127.42 79.15zm-3.85 6.1l-.14.22-.01.02-.08.1a480.5 480.5 0 0 1-.96 1.5l-125.84-81.63.82-1.27 126.21 81.05zm-3.93 6.02l-.12.18a626.39 626.39 0 0 1-1.1 1.65l-124.6-83.5.83-1.26 124.99 82.93zm-4.03 5.97l-.3.43-.02.04-.08.12-.85 1.22-123.34-85.36.86-1.25 123.73 84.8zm-4.11 5.9a551.82 551.82 0 0 1-.66.94l-.01.01-.6.85-122.06-87.2.88-1.23 122.45 86.64zm-4.2 5.85l-.81 1.11-.02.02-.1.14-.38.5-120.73-89 .9-1.23 121.14 88.46zm-4.3 5.79a550.24 550.24 0 0 1-1.32 1.75l-119.4-90.8.92-1.21 119.8 90.26zm-4.37 5.72l-.84 1.08-.12.15c-.1.12-.2.24-.28.36l-.1.13h-.01l-118.02-92.57.93-1.2 118.44 92.05zm-4.46 5.65a554.3 554.3 0 0 1-1.38 1.71l-116.63-94.33.96-1.18 117.05 93.8zm-4.54 5.58a467.78 467.78 0 0 1-1.4 1.7l-115.21-96.07.96-1.16 115.65 95.53zm-4.63 5.52a451.2 451.2 0 0 1-1.43 1.67l-113.76-97.77.99-1.15 114.2 97.25zm-4.7 5.45l-.3.32-.07.09c-.01 0 0-.01 0 0a508.8 508.8 0 0 1-1.1 1.24l-112.28-99.46 1-1.14 112.74 98.95zm-4.8 5.37a469.25 469.25 0 0 1-1.09 1.2l-.03.04-.36.39-110.8-101.12 1.03-1.12L836.1 801.85zm-4.87 5.3l-.04.05-.1.1-.08.1-.12.12-.08.09-.08.08c-.04.04-.1.1-.13.15l-.07.07-.1.1-.06.07-.16.17-.06.06-.1.1-.05.06-.16.17-.06.07-.05.05L720.47 706l1.03-1.1 109.74 102.26zm-4.95 5.24l-.74.77-.04.04-.1.11-.56.58-.02.01-.06.07-107.73-104.38 1.05-1.09L826.3 812.4zm-5.02 5.15a476.45 476.45 0 0 1-1.1 1.12l-.1.1-.35.34-106.16-105.97 1.07-1.07 106.64 105.48zm-5.1 5.08l-.72.7-.01.02-.09.08-.76.74-104.57-107.54 1.09-1.06 105.06 107.06zm-5.18 5a499.17 499.17 0 0 1-1.6 1.52L706.45 720.05l1.1-1.04L811 827.63zm-5.25 4.93a421.62 421.62 0 0 1-1.62 1.5L702.8 723.42l1.12-1.02 101.82 110.14zm-5.32 4.85l-1.64 1.47-99.66-112.11 1.13-1.01L800.42 837.4zm-5.4 4.77l-.01.01-.17.15-.03.03-.17.14-.08.07-.08.08-.18.15-.05.04-.11.1-.05.04-.22.2-.02.01-.4.34-.02.02-.07.06-97.97-113.58 1.14-1 98.5 113.14zm-5.46 4.69h-.01l-.82.7-.03.02-.16.13-.1.09-.1.08-.1.08-.15.13-.02.02-.2.16-96.27-115.03 1.17-.97 96.79 114.59zm-5.54 4.6l-1.03.85-.13.1-.05.04-.13.1-.13.11-.03.03-.2.16-94.54-116.45 1.17-.96 95.07 116.02zm-5.6 4.52l-.73.58-.12.1-.02.01-.86.68-92.79-117.86 1.19-.94 93.33 117.43zm-5.67 4.44l-1.18.9-.12.1-.02.01-.43.33-91.02-119.23 1.2-.92 91.57 118.81zm-5.74 4.35l-1.76 1.32-89.23-120.58 1.21-.9 89.78 120.16zm-5.8 4.27l-.18.13-1.24.9-.1.06-.04.04-.22.16L672 748.43l1.23-.88 87.97 121.5zm-5.86 4.18l-1.8 1.26-85.59-123.19 1.24-.87 86.15 122.8zm-5.93 4.09l-1.65 1.12-.17.11-83.73-124.45 1.26-.85 84.3 124.07zm-5.98 4a488.79 488.79 0 0 1-1.84 1.2l-81.86-125.69 1.27-.83 82.43 125.32zm-6.04 3.91c-.61.4-1.25.8-1.86 1.18l-79.97-126.9 1.28-.82 80.55 126.54zm-6.1 3.82a444.74 444.74 0 0 1-1.88 1.15L651.36 762.1l1.3-.79 78.63 127.73zm-6.17 3.73l-.07.05-.16.1a632.3 632.3 0 0 1-.5.29l-.02.01-1.14.67-76.12-129.25 1.3-.77 76.71 128.9zm-6.21 3.64a464.62 464.62 0 0 1-.74.42l-.09.05-1.08.62-74.17-130.38 1.3-.75 74.78 130.04zm-6.27 3.54l-1.93 1.06-72.2-131.47 1.32-.73 72.8 131.14zm-6.32 3.45l-.96.51-.02.01-.21.11-.07.04-.15.08-.09.05-.2.1-.24.13-70.22-132.55 1.33-.7 70.83 132.22zm-6.37 3.35h-.01l-1.95 1-68.22-133.59 1.34-.69 68.84 133.28zm-6.43 3.26l-.71.35-.08.04-.13.07c-.03 0-.06.02-.09.04l-.21.1h-.01l-.74.37-66.2-134.6 1.36-.67 66.81 134.3zm-6.47 3.15a329.59 329.59 0 0 1-.48.24h-.02l-.23.11-.01.01a194.8 194.8 0 0 1-1.24.59L620.9 778.53l1.37-.65 64.79 135.28zm-6.51 3.06c-.41.2-.83.38-1.24.57a466.44 466.44 0 0 1-.76.35L616.43 780.6l1.38-.62 62.74 136.24zm-6.57 2.97a458.72 458.72 0 0 1-2.01.88l-60.05-137.45 1.38-.61 60.68 137.18zm-6.6 2.86h-.02l-.11.06-.52.21-.07.03-.09.04a545.47 545.47 0 0 1-1.22.51L607.4 784.56l1.39-.59 58.6 138.08zm-6.65 2.76l-1.83.74-.21.09-55.87-139.21 1.4-.56 56.5 138.94zm-6.69 2.66l-2.05.8-53.76-140.04 1.4-.54 54.41 139.78zm-6.73 2.57a500.93 500.93 0 0 1-2.06.76L593.6 789.97l1.41-.53 52.3 140.6zm-6.77 2.46l-.25.08-.02.01-.49.17-.03.02c-.16.05-.32.1-.48.17h-.04l-.76.28-49.5-141.6 1.41-.5 50.16 141.37zm-6.8 2.35a419 419 0 0 1-.51.17l-.05.02-.15.05a439.54 439.54 0 0 1-1.38.46L584.3 793.22l1.43-.48 48.01 142.11zm-6.84 2.25l-1.9.61-.2.06-45.2-143.03 1.44-.45L626.9 937.1zm-6.87 2.15l-.02.01-.17.05-1.92.58-43.03-143.7 1.44-.43 43.7 143.5zm-6.9 2.05a488.89 488.89 0 0 1-2.07.59l-.05.01-40.85-144.33 1.44-.41 41.53 144.14zm-6.94 1.94l-2.12.57-38.67-144.93 1.45-.39 39.34 144.75zm-6.96 1.84l-2.07.52-.06.02-36.48-145.5 1.46-.37 37.15 145.33zm-6.99 1.72c-.7.18-1.42.35-2.14.51l-34.27-146.03 1.47-.35 34.94 145.87zm-7.02 1.63l-2.14.48L551 802.37l1.47-.32 32.74 146.38zm-7.03 1.52l-.11.02-.1.02-.1.02-.2.04-.08.02-.15.03-1.42.3-29.85-147 1.48-.31 30.53 146.86zm-7.06 1.41l-.4.08-.07.01-.14.03h-.06l-1.49.29-27.63-147.43 1.48-.28 28.31 147.3zm-7.08 1.3l-.22.05-1.76.3-.2.03-25.4-147.83 1.49-.26 26.09 147.72zm-7.1 1.2l-1.22.2h-.05l-.14.03-.2.03-.06.01a1341.15 1341.15 0 0 0-.27.04l-.2.03-.03.01-23.18-148.2 1.49-.23 23.86 148.08zm-7.12 1.1l-2.17.3-20.96-148.52 1.5-.21 21.63 148.43zm-7.13.98l-2.18.28-18.73-148.83 1.5-.19 19.41 148.74zm-7.14.88l-1.04.12-.14.01a14.32 14.32 0 0 1-.56.07h-.1l-.09.02c-.09 0-.17.02-.26.03l-16.5-149.1 1.51-.16 17.18 149zm-7.17.77l-1.09.1v.01l-.24.02H527c-.08.02-.17.02-.25.03h-.02l-.54.05-14.26-149.32 1.51-.14 14.94 149.25zm-7.16.66l-2.2.19L507 808.92l1.51-.13 12.72 149.46zm-7.18.56l-2.2.15-9.8-149.68 1.51-.1 10.49 149.63zm-7.19.45l-.34.02-1.86.1-7.58-149.81 1.52-.08 8.26 149.77zm-7.19.34h-.13l-.05.01h-.14l-.22.02h-.32l-.19.02h-.26l-.89.04-5.36-149.9 1.52-.06 6.04 149.87zm-7.2.24l-2.2.05-3.15-149.96 1.53-.04 3.82 149.95zm-7.2.13h-.72l-.2.01h-.46l-.81.01-.94-150 1.52-.01 1.62 150zM478.67 810l-.6 150h-.55a556.84 556.84 0 0 1-1.65-.02l1.27-150 1.53.02zm-5-.06l-2.8 149.97a510.59 510.59 0 0 1-1.67-.03h-.1l-.42-.01 3.47-149.96 1.52.03zm-4.98-.13l-5.01 149.92-.38-.02-1.82-.06 5.69-149.9 1.52.06zm-4.97-.2l-7.23 149.82a302.51 302.51 0 0 1-2.2-.1l7.9-149.8 1.53.08zm-4.97-.28l-9.46 149.7-.27-.01-.11-.01-1.81-.12 10.13-149.66 1.52.1zm-4.96-.35L442.1 958.53l-2.2-.18 12.37-149.49 1.51.12zm-4.94-.42L434.93 957.9a511.81 511.81 0 0 1-2.12-.2h-.07l14.6-149.3 1.5.15zm-4.94-.5L427.76 957.2l-.99-.1a84.08 84.08 0 0 1-1.2-.14L442.4 807.9l1.5.17zm-4.91-.57l-18.37 148.87a559.58 559.58 0 0 1-1.15-.14l-.08-.01-.96-.12 19.05-148.79 1.5.2zm-4.92-.64l-20.6 148.58a388.6 388.6 0 0 1-1.47-.21l-.1-.01-.1-.02-.5-.07 21.28-148.48 1.5.2zm-4.9-.72l-22.82 148.25a522.84 522.84 0 0 1-1.49-.23h-.02c-.06 0-.1-.02-.17-.03-.07 0-.14-.02-.2-.03h-.05l-.25-.05 23.51-148.14 1.5.23zm-4.87-.79l-25.06 147.9-2.16-.38L422.8 805.1l1.49.25zm-4.87-.86l-27.28 147.5-.98-.18h-.02l-.16-.04h-.06l-.26-.06-.08-.01-.14-.03-.07-.01-.4-.08 27.97-147.37 1.48.28zm-4.85-.93l-29.5 147.07-2.15-.44 30.17-146.93 1.48.3zm-4.83-1.01l-31.72 146.6-1.05-.22-.06-.01-.1-.03-.93-.2 32.39-146.46 1.47.32zm-4.82-1.08l-33.92 146.11-.85-.2-.22-.05a526.56 526.56 0 0 1-1.07-.25l34.6-145.96 1.46.35zm-4.8-1.15l-36.12 145.58-.66-.16-.1-.03-.07-.02-1.3-.32 36.8-145.42 1.46.37zm-4.77-1.23L357.03 944.1a447.12 447.12 0 0 1-2.12-.56l38.99-144.85 1.46.4zm-4.76-1.3L350.1 942.21l-.24-.06a499.31 499.31 0 0 1-1.88-.54l41.18-144.23 1.45.4zm-4.74-1.36l-42.7 143.8-.5-.15-.05-.02-.14-.04-.24-.07-.03-.01-1.14-.35 43.36-143.6 1.44.44zm-4.72-1.44L336.28 938.1a117.44 117.44 0 0 0-1.55-.49l-.06-.01-.1-.04-.39-.12 45.52-142.93 1.44.46zm-4.7-1.51L329.44 935.9l-2.09-.7L375.02 793l1.43.48zm-4.67-1.58L322.61 933.6l-1.03-.36h-.02a287.1 287.1 0 0 1-.35-.13l-.06-.02-.17-.06-.18-.06h-.02l-.25-.1 49.82-141.48 1.42.5zm-4.64-1.66l-51.3 140.96-.66-.24-.06-.02-.1-.04-1.25-.46 51.95-140.71 1.42.51zm-4.63-1.72l-53.42 140.17-2.06-.8 54.08-139.9 1.4.53zm-4.6-1.79l-55.53 139.34-.58-.23-.18-.07-.03-.02-.21-.08-.04-.01-.46-.2-.06-.01-.22-.1h-.03l-.2-.09h-.03l56.18-139.1 1.4.57zm-4.56-1.86L295.7 923.34l-.24-.1-.04-.01-.16-.07-.18-.07-.08-.04a59.17 59.17 0 0 1-.19-.08l-.22-.1a.21.21 0 0 1-.11-.04l-.09-.03-.72-.3 58.27-138.22 1.4.58zm-4.55-1.93l-59.71 137.6-.61-.27-1.29-.56-.08-.04-.04-.01 60.35-137.33 1.38.6zm-4.51-2l-61.8 136.67a473.9 473.9 0 0 1-2-.9l62.41-136.4 1.38.62zm-4.49-2.07L275.95 914.6l-.38-.18-.07-.04-.1-.04-.16-.08-.04-.02-.2-.1-.1-.04-.1-.05-.84-.4 64.47-135.44 1.36.65zm-4.45-2.14l-65.88 134.76a528.94 528.94 0 0 1-1.97-.97L334 776.06l1.35.66zm-4.42-2.2l-67.9 133.75a594.03 594.03 0 0 1-.68-.34l-.09-.05-.2-.1-.02-.01-.97-.5 68.51-133.44 1.35.69zm-4.4-2.27l-69.9 132.72-1.78-.95-.16-.09 70.51-132.39 1.34.71zm-4.35-2.34l-71.9 131.65-1.92-1.06 72.5-131.31 1.32.72zm-4.32-2.4l-73.87 130.55-.47-.27h-.01l-.14-.08-1.29-.73 74.46-130.22 1.32.75zm-4.3-2.47l-75.8 129.43-1.9-1.12 76.4-129.08 1.3.77zm-4.24-2.53l-77.75 128.28-1.05-.64-.06-.04-.1-.05-.67-.42 78.34-127.92 1.29.79zm-4.22-2.6l-79.66 127.1-1.86-1.18L303.8 759.1l1.28.81zm-4.17-2.66l-81.56 125.89-1.85-1.2 82.14-125.52 1.27.83zm-4.14-2.73l-83.44 124.66-1.59-1.07-.02-.02-.16-.1-.05-.04 84-124.27 1.26.84zm-4.1-2.78L207.4 875.13l-.07-.05-.05-.03-.23-.16-.04-.03-.12-.09-.07-.04-.2-.14-.06-.05-.12-.08-.08-.05a289.32 289.32 0 0 1-.26-.18l-.1-.07-.13-.1-.1-.07-.14-.09-.04-.03 85.86-123 1.24.87zm-4.05-2.85l-87.13 122.1-.42-.3-.08-.06a85.53 85.53 0 0 0-.75-.53l-.04-.03-.09-.07-.4-.3L287.4 748l1.23.89zm-4.02-2.91l-88.94 120.78-1.77-1.3 89.5-120.38 1.21.9zm-3.97-2.97L189.9 862.45l-.62-.48-.05-.03-.17-.13a96.6 96.6 0 0 1-.11-.09c-.02 0-.03-.02-.05-.03l-.74-.57 91.28-119.03 1.2.92zm-3.92-3.03L184.2 858.05l-.64-.5-.01-.01-.1-.08-.85-.66-.13-.1 93.06-117.66 1.19.94zm-3.89-3.09l-94.26 116.68-1.7-1.39 94.79-116.24 1.17.95zm-3.83-3.15L173 849l-1.16-.97-.1-.08-.01-.01-.41-.35 96.52-114.82 1.16.97zm-3.79-3.2l-97.7 113.82-.25-.22-1.42-1.22 98.22-113.37 1.15 1zm-3.74-3.26l-99.4 112.34-.6-.53-.02-.02-.18-.16a68.1 68.1 0 0 0-.07-.06l-.1-.1-.08-.06-.17-.15-.02-.02-.4-.36 99.9-111.89 1.14 1.01zm-3.7-3.32L156.73 834.81a461.35 461.35 0 0 1-1.62-1.48l101.56-110.39 1.12 1.02zm-3.64-3.37l-102.7 109.33a521.53 521.53 0 0 1-.9-.86l-.13-.1-.15-.15-.06-.06-.1-.1-.25-.24 103.19-108.86 1.1 1.04zm-3.59-3.42L146.22 824.96a475.23 475.23 0 0 1-1.57-1.54l104.8-107.31 1.09 1.06zm-3.54-3.48L141.09 819.9l-.32-.32-1.24-1.24 106.4-105.73 1.07 1.07zm-3.49-3.53L136.03 814.79l-1.53-1.58 107.95-104.14 1.06 1.09zm-3.44-3.58L131.04 809.59l-.03-.04-1.4-1.47-.07-.1 109.5-102.51 1.03 1.1zm-3.38-3.64L126.14 804.32l-.54-.59-.03-.03-.17-.19h-.01l-.35-.39-.1-.1V803l-.29-.3 111.02-100.88 1.02 1.12zm-3.33-3.68l-112.05 99.72-1.46-1.65 112.5-99.2 1.01 1.13zm-3.27-3.73l-113.52 98.03-.36-.4-.04-.06-.09-.1-.48-.56-.09-.1-.05-.05-.33-.4 113.97-97.51 1 1.15zm-3.21-3.78L111.9 788.08l-.16-.19-.04-.04-.12-.15-.08-.1-.09-.1c-.02-.04-.04-.05-.07-.08l-.13-.17-.04-.05-.15-.17-.51-.62-.02-.02 115.42-95.8.97 1.16zm-3.16-3.83l-116.4 94.6-.43-.51-.04-.06-.08-.1-.13-.16-.05-.05-.13-.17-.01-.02-.52-.63 116.84-94.08.95 1.18zm-3.1-3.87l-117.8 92.86-1.36-1.74 118.22-92.31.94 1.19zm-3.04-3.92L98.4 771.22l-1.33-1.75 119.6-90.55.9 1.21zm-2.98-3.96l-120.53 89.3-1.3-1.78 120.93-88.74.9 1.22zm-2.92-4L89.83 759.64a461.75 461.75 0 0 1-1.28-1.8l122.25-86.92.88 1.23zm-2.86-4.06L85.68 753.77l-.62-.9-.02-.01-.13-.2-.04-.05-.45-.65 123.53-85.09.87 1.24zm-2.8-4.08L81.6 747.83l-.28-.42-.05-.07-.1-.14-.09-.14-.05-.07-.07-.1-.12-.2-.01-.01-.46-.68 124.8-83.23.84 1.26zm-2.74-4.13L77.63 741.82l-1.2-1.84 126.03-81.35.82 1.27zm-2.67-4.17L73.74 735.77l-.87-1.4-.02-.03a60.88 60.88 0 0 0-.28-.44l127.23-79.45.8 1.28zm-2.61-4.2L69.95 729.64l-1.14-1.88 128.4-77.54.79 1.3zm-2.55-4.25l-129.2 76.2a392.21 392.21 0 0 1-1.12-1.9l129.55-75.6.77 1.3zm-2.48-4.28L62.63 717.24l-.16-.29c-.3-.5-.58-1.02-.87-1.52l-.05-.1 130.67-73.65.75 1.32zm-2.42-4.32L59.12 710.96l-.22-.4-.01-.02-.07-.11-.1-.18v-.02l-.13-.23-.53-.97 131.77-71.67.72 1.32zm-2.35-4.35l-132.5 70.3a1216.37 1216.37 0 0 1-1.03-1.95l132.83-69.69.7 1.34zm-2.28-4.38l-133.55 68.3-.5-.97v-.03l-.11-.2-.05-.1-.05-.1-.29-.57 133.86-67.68.69 1.35zm-2.22-4.42L49.14 691.8l-.4-.8-.07-.16-.03-.05-.33-.68-.14-.28 134.87-65.66.66 1.36zm-2.15-4.45L46.01 685.32l-.3-.62-.04-.1-.03-.04-.57-1.23 135.84-63.61.64 1.36zm-2.08-4.48l-136.5 62.2-.9-2.01 136.78-61.56.62 1.37zm-2.01-4.5L40.03 672.21l-.15-.35v-.01l-.09-.2-.08-.2-.55-1.26 137.7-59.49.6 1.38zm-1.95-4.54L37.2 665.6a696.15 696.15 0 0 1-.3-.71l-.02-.06-.1-.23-.01-.03-.2-.49c-.01-.01 0 0 0 0l-.22-.51 138.58-57.4.58 1.39zm-1.87-4.57L34.46 658.94a495.84 495.84 0 0 1-.7-1.75l-.02-.06-.1-.23 139.44-55.3.56 1.4zm-1.8-4.6L31.82 652.25a481.2 481.2 0 0 1-.79-2.06L171.3 597l.54 1.4zm-1.74-4.6L29.3 645.5l-.04-.1-.01-.02-.19-.51-.1-.27-.03-.1a33.94 33.94 0 0 0-.39-1.07l141.04-51.06.52 1.41zm-1.67-4.65L26.86 638.72l-.35-1.02-.01-.03-.16-.45-.04-.12-.02-.05-.14-.4 141.8-48.93.5 1.42zm-1.6-4.67l-142.3 47.44a545.76 545.76 0 0 1-.69-2.09l142.52-46.78.48 1.43zm-1.52-4.69l-143 45.28-.54-1.72-.03-.1-.01-.03-.08-.25 143.21-44.62.45 1.44zm-1.45-4.71L20.19 618.18l-.63-2.1 143.87-42.46.43 1.45zm-1.38-4.74l-144.3 40.94-.6-2.12 144.49-40.27.4 1.45zm-1.31-4.75L16.26 604.33l-.02-.05-.54-2.08 145.08-38.08.39 1.46zm-1.24-4.78L14.45 597.36a529.3 529.3 0 0 1-.3-1.24l-.04-.1-.2-.8 145.65-35.88.37 1.46zm-1.17-4.8L12.75 590.38l-.06-.25-.01-.06-.02-.07-.24-1.04-.04-.18-.01-.03-.12-.52 146.17-33.68.34 1.47zm-1.1-4.8l-146.5 32.14a461.39 461.39 0 0 1-.47-2.15l146.66-31.47.32 1.48zm-1.01-4.83l-147 29.93-.02-.1v-.03l-.22-1.08-.2-.95 147.13-29.26.3 1.49zm-.95-4.85L8.28 569.24l-.2-1.06v-.05l-.05-.21a100.58 100.58 0 0 1-.04-.22l-.02-.13-.1-.5 147.55-27.03.28 1.48zm-.88-4.87L7 562.15a469.45 469.45 0 0 1-.34-2.01l-.03-.16 147.94-24.81.25 1.48zm-.8-4.87L5.83 555.05l-.02-.17-.31-2.01 148.29-22.59.23 1.5zm-.73-4.9L4.77 547.93l-.03-.2v-.04l-.01-.06a547.43 547.43 0 0 1-.26-1.87l148.6-20.36.22 1.5zm-.66-4.9L3.8 540.78l-.05-.39v-.05l-.02-.11-.2-1.63 148.9-18.12.19 1.5zm-.59-4.92L2.96 533.64v-.02a198.97 198.97 0 0 1-.18-1.69l-.05-.48 149.15-15.9.16 1.51zm-.5-4.93L2.21 526.47l-.19-1.98-.01-.2 149.37-13.67.14 1.5zm-.44-4.94L1.59 519.3l-.03-.27-.15-1.92 149.57-11.44.12 1.52zm-.37-4.96l-149.67 9.9-.02-.32-.05-.78-.02-.22-.05-.88 149.72-9.21.1 1.51zm-.29-4.96L.64 504.93l-.03-.42a150.48 150.48 0 0 0-.08-1.75v-.02l149.84-7 .07 1.53zm-.22-4.97L.32 497.74l-.07-2.2 149.92-4.77.05 1.53zm-.14-4.99L.1 490.54a495 495 0 0 1-.04-2.2l149.98-2.55.03 1.52zm-.07-4.99L0 483.35a566.95 566.95 0 0 1 0-2.2l150-.36v1.53zm.02-6.53l-.02 1.53-150-1.19v-.29l.01-.21v-.97l.01-.14v-.59l150 1.86zm.1-4.98l-.04 1.52-149.97-3.4.06-2.2 149.94 4.08zm.17-4.99l-.06 1.52-149.9-5.6v-.12l.03-.52v-.22a553.42 553.42 0 0 1 .06-1.34l149.87 6.28zm.24-4.97l-.08 1.52-149.8-7.82a553.84 553.84 0 0 1 .06-1v-.16l.01-.1.01-.22v-.1l.02-.16v-.01l.02-.45 149.76 8.5zm.32-4.95l-.1 1.5L1.09 447.37l.15-2.2 149.62 10.74zm.4-4.96l-.13 1.52-149.5-12.28.16-1.9.02-.3 149.44 12.96zm.46-4.93l-.15 1.5-149.3-14.5.22-2.19 149.23 15.19zm.54-4.93l-.18 1.5L3.02 425.84l.25-2.18 148.99 17.42zm.6-4.92l-.19 1.5L3.87 418.7l.3-2.18 148.7 19.64zm.7-4.9l-.22 1.5-148.5-21.2a519.93 519.93 0 0 1 .32-2.17l148.4 21.88zm.75-4.88l-.24 1.49L5.91 404.44l.11-.69v-.02l.03-.18.18-1.11.03-.17 148.05 24.1zm.83-4.87l-.26 1.48-147.8-25.65.01-.08a516.57 516.57 0 0 1 .28-1.58l.04-.22v-.02l.05-.27 147.67 26.34zm.9-4.86l-.28 1.48L8.38 390.25l.06-.34.02-.12a61.21 61.21 0 0 1 .33-1.7l147.26 28.56zm.98-4.84l-.3 1.48-146.95-30.1a1015.99 1015.99 0 0 1 .44-2.15l146.81 30.77zm1.05-4.82l-.33 1.47-146.48-32.31a486.46 486.46 0 0 1 .48-2.15l146.32 33zm1.12-4.81l-.35 1.46-145.97-34.51.06-.25c0-.05.02-.1.03-.14l.01-.05a480.32 480.32 0 0 1 .4-1.7l145.82 35.19zm1.2-4.79l-.38 1.46-145.43-36.71.54-2.14 145.27 37.4zm1.26-4.76l-.4 1.45L16.4 355.17l.58-2.12 144.68 39.57zm1.34-4.75l-.42 1.44-144.26-41.1a534.95 534.95 0 0 1 .53-1.83l.08-.28L163 387.88zm1.4-4.73l-.43 1.44-143.62-43.27.64-2.1 143.42 43.93zm1.49-4.7l-.46 1.43-142.95-45.44.01-.05.06-.19.02-.04a489.6 489.6 0 0 1 .58-1.81l142.74 46.1zm1.55-4.69l-.48 1.43L24.7 327.6l.1-.32.5-1.48.03-.06a17.81 17.81 0 0 1 .07-.22l142.03 48.25zm1.62-4.65l-.5 1.42-141.51-49.74.73-2.08 141.28 50.4zm1.7-4.64l-.53 1.41-140.75-51.87a555.18 555.18 0 0 1 .77-2.06l140.5 52.52zm1.76-4.6l-.55 1.4-139.94-54 .19-.5v-.02l.07-.16.08-.2a3.55 3.55 0 0 1 .09-.22l.06-.17v-.02l.3-.76 139.7 54.64zm1.83-4.59l-.57 1.4-139.11-56.1.13-.32.02-.05.08-.2.06-.15.03-.1.05-.1.45-1.12 138.86 56.74zm1.9-4.55l-.59 1.38L37.4 293.92a687 687 0 0 1 .86-2.03l137.98 58.84zm1.97-4.53l-.6 1.38-137.37-60.27.78-1.76v-.02l.09-.18.02-.06 137.08 60.91zm2.04-4.5l-.63 1.37L43.2 280.73l.56-1.23.01-.02.1-.2c0-.03.03-.07.04-.1l.06-.13.05-.1.1-.21 136.14 62.96zm2.1-4.47l-.64 1.37-135.48-64.4.13-.26a519.32 519.32 0 0 1 .82-1.72l135.18 65.01zm2.18-4.43l-.67 1.35-134.5-66.42.04-.06.03-.06.62-1.26a388.04 388.04 0 0 1 .26-.51l.04-.08 134.18 67.04zm2.24-4.4l-.69 1.34L52.6 261.3a232.1 232.1 0 0 0 1.01-1.96l133.16 69.05zm2.31-4.38l-.71 1.33-132.43-70.43.68-1.28.09-.16v-.02l.14-.24.1-.2.03-.04 132.1 71.04zm2.38-4.33l-.74 1.32-131.35-72.42.56-1.03.04-.07.46-.83 131.03 73.03zm2.44-4.3l-.75 1.3L62.9 242.31l.55-.96.55-.95 129.9 74.98zm2.5-4.28l-.77 1.3-129.12-76.33a496.94 496.94 0 0 1 1.12-1.9l128.77 76.93zm2.57-4.22l-.79 1.28-127.96-78.26.14-.23.05-.08c0-.02.02-.03.03-.05l.93-1.51 127.6 78.85zm2.64-4.2l-.81 1.28L74.02 223.8a466.28 466.28 0 0 1 .18-.28l.07-.12.93-1.46 126.4 80.75zm2.7-4.15l-.84 1.26-125.56-82.06 1.21-1.84 125.19 82.64zm2.76-4.11l-.85 1.25L81.9 211.74a473.4 473.4 0 0 1 1.23-1.82l123.94 84.5zm2.82-4.08l-.87 1.24-123.05-85.78 1.26-1.8 122.66 86.34zm2.88-4.03l-.89 1.23-121.75-87.62.14-.18a468 468 0 0 1 1.15-1.6l121.35 88.17zm2.95-3.99l-.9 1.21-120.44-89.42a479.87 479.87 0 0 1 .85-1.14l.08-.1.15-.2.01-.02.23-.3 120.02 89.97zm3-3.94l-.92 1.2-119.08-91.22a509.82 509.82 0 0 1 1.34-1.74l118.66 91.76zm3.06-3.9l-.94 1.18-117.7-92.98a551.75 551.75 0 0 1 1.37-1.73l117.27 93.52zm3.13-3.86l-.96 1.17-116.3-94.73a902.17 902.17 0 0 1 1.39-1.7l115.87 95.26zm3.18-3.81l-.98 1.16-114.88-96.46.1-.12.05-.06.07-.08.08-.1 1.12-1.32 114.44 96.98zm3.23-3.76l-1 1.14-113.42-98.16.35-.4.03-.03.02-.02a493.92 493.92 0 0 1 1.05-1.2l112.97 98.67zm3.3-3.72l-1.02 1.13-111.94-99.84.26-.3h.01l.12-.14.15-.17.73-.8.07-.09.13-.13L234.6 259.34zm3.34-3.66l-1.03 1.11L126.5 155.3a482.47 482.47 0 0 1 1.5-1.61l109.97 102zm3.4-3.61l-1.04 1.1L131.4 150.02l.56-.59.05-.05.05-.06.86-.9 108.45 103.64zm3.46-3.57l-1.06 1.09L136.4 144.84l.27-.28.04-.04a47.49 47.49 0 0 1 1.03-1.04l.02-.03.13-.13.05-.05 106.9 105.23zm3.51-3.5l-1.08 1.06-105.8-106.34.66-.65.02-.02.22-.22.03-.02.1-.1.07-.07.14-.14.1-.1.07-.07.15-.14v-.01l105.32 106.81zm3.56-3.47l-1.1 1.05-104.2-107.9 1.6-1.52 103.7 108.37zm3.61-3.4l-1.1 1.03L151.8 129.72l1.61-1.5 102.08 109.9zm3.66-3.35l-1.12 1.01L157.1 124.84l1.63-1.48 100.43 111.42zm3.72-3.3l-1.14 1-99.27-112.45 1.01-.9.05-.03.1-.09.49-.43 98.76 112.9zm3.76-3.24l-1.16.99L167.9 115.3a696.75 696.75 0 0 1 .58-.5l.07-.06 1.02-.87 97.07 114.36zm3.8-3.18l-1.17.97-95.87-115.37.63-.52.01-.01.18-.15c.02 0 .03-.02.04-.03l.2-.16.64-.53 95.34 115.8zm3.86-3.13l-1.19.95-94.14-116.78a601.8 601.8 0 0 1 1.72-1.37l93.6 117.2zm3.9-3.06l-1.2.93-92.39-118.17 1.6-1.25h.01l.13-.1 91.84 118.59zm3.94-3l-1.21.9-90.61-119.54a510.1 510.1 0 0 1 1.75-1.32l90.07 119.95zm3.98-2.96l-1.22.9L196.1 92.93a614.33 614.33 0 0 1 1.77-1.3l88.26 121.28zm4.03-2.88l-1.23.87-87-122.2a461.84 461.84 0 0 1 .93-.65l.08-.05c.25-.19.53-.38.79-.56l86.43 122.59zm4.08-2.83l-1.25.86-85.16-123.48.37-.26.15-.1.03-.02.22-.15.08-.06.1-.07.16-.1.06-.05.16-.11.04-.03.44-.3 84.6 123.87zm4.1-2.76l-1.25.84-83.3-124.75 1.83-1.21 82.73 125.12zm4.16-2.7l-1.27.82L219.8 76.58l.07-.04 1.5-.97.28-.18 80.85 126.35zm4.2-2.64l-1.3.8-79.52-127.18 1.6-1c.02 0 .06-.03.08-.05l.02-.01.17-.1 78.94 127.54zm4.22-2.57l-1.3.78-77.6-128.36c.62-.39 1.24-.76 1.88-1.14l77.02 128.72zm4.26-2.51l-1.3.76L238.2 65.27a518.32 518.32 0 0 1 1.9-1.1l75.08 129.85zm4.3-2.44l-1.31.74-73.72-130.64 1.2-.67.17-.1.54-.3 73.12 130.97zm4.34-2.38l-1.33.72-71.75-131.73.47-.26h.03l1.44-.79L323.8 189.2zm4.37-2.31l-1.34.7-69.76-132.8 1.95-1.02 69.15 133.12zm4.4-2.25l-1.35.68-67.75-133.83.95-.47.1-.06.08-.04.2-.1.1-.05.07-.03.47-.24 67.13 134.14zm4.44-2.18l-1.36.66-65.73-134.83.7-.34.1-.05.05-.02 1.13-.55L337 182.46zm4.46-2.1l-1.36.63-63.7-135.8 2-.94 63.06 136.1zm4.5-2.05l-1.38.62-61.64-136.76a542.85 542.85 0 0 1 2.01-.9l61.01 137.04zm4.52-1.97l-1.38.6-59.57-137.67c.67-.3 1.35-.59 2.02-.87l58.93 137.94zm4.56-1.91l-1.4.57-57.48-138.54.35-.15 1.69-.7 56.84 138.82zm4.58-1.84l-1.4.56-55.39-139.4 2.05-.81 54.74 139.65zm4.6-1.76l-1.4.53-53.28-140.22a876.42 876.42 0 0 1 2.06-.78l52.63 140.47zm4.64-1.7l-1.42.51-51.15-141a441.83 441.83 0 0 1 2.07-.75l50.5 141.24zm4.66-1.62l-1.43.49L323.1 26.23l.64-.22.08-.03.1-.03a755.89 755.89 0 0 1 .25-.09l.18-.06.12-.04.04-.01.67-.23 48.36 141.99zm4.68-1.56l-1.43.47-46.87-142.5 2.1-.67 46.2 142.7zm4.7-1.48l-1.44.45-44.7-143.19.52-.16.03-.01.16-.05.48-.15.2-.06.18-.06h.01l.52-.16 44.04 143.39zm4.72-1.41l-1.44.42-42.53-143.84a495.82 495.82 0 0 1 2.1-.62l41.87 144.04zm4.75-1.34l-1.45.4L350.6 17.65l2.12-.59 39.68 144.66zm4.77-1.27l-1.46.38-38.17-145.07.34-.08 1.8-.47 37.49 145.24zm4.78-1.2l-1.46.36-35.97-145.63.78-.19.08-.02c.05 0 .1-.02.16-.04l.07-.01 1.05-.26 35.3 145.79zm4.81-1.13l-1.47.34L371.5 12.31l.8-.18h.01l.2-.05.14-.03.07-.02.23-.05.13-.03.07-.02.5-.11 33.1 146.3zm4.82-1.05l-1.47.32-31.56-146.65a468.8 468.8 0 0 1 2.15-.45l30.88 146.78zm4.84-.98l-1.48.3L385.6 9.28l.22-.05h.02l.1-.03.14-.02.1-.02.1-.02 1.48-.3 28.66 147.24zm4.86-.9l-1.49.26L392.66 7.93l1.44-.27c.04 0 .08 0 .12-.02l.07-.01.54-.1 26.44 147.65zm4.87-.84l-1.49.25-24.9-147.92.06-.01.12-.02.25-.04.04-.01 1.04-.17.09-.02h.06l.51-.1 24.22 148.04zm4.89-.76l-1.5.22L406.86 5.54a478.96 478.96 0 0 1 1.35-.2l.04-.01.8-.12 21.98 148.38zm4.9-.69l-1.5.2L413.99 4.5l.22-.03.14-.02h.03l.52-.07.1-.02h.1c.35-.06.7-.1 1.07-.15l19.76 148.69zm4.91-.62l-1.5.18-18.2-148.89a486.1 486.1 0 0 1 2.17-.26l17.53 148.97zm4.93-.54l-1.51.16L428.28 2.75h.03l.22-.02h.05l.22-.03h.04l.21-.03.15-.01h.04l1.23-.14 15.3 149.22zm4.93-.47l-1.5.14L435.44 2.04l.51-.05h.05l.23-.02h.07l.23-.03 1.1-.1 13.06 149.43zm4.96-.4l-1.52.12L442.62 1.43l.82-.06a170.68 170.68 0 0 1 1.34-.1h.04l10.84 149.6zm4.95-.31l-1.52.09L449.8.93 452 .8l8.61 149.76zm4.97-.25l-1.51.06L457 .54c.01 0 0 0 0 0l.25-.01h.06a188.5 188.5 0 0 1 .27-.02h.14l1.47-.07 6.4 149.87zm4.98-.18l-1.52.05L464.18.26l2.2-.07 4.18 149.94zm4.99-.1l-1.53.02L471.38.08h.16l1.29-.03h.75l1.97 149.98zM480 150L478.59 0 480 150zm-.98 0l-.43-150 .43 150zM488 .07l-2.45 149.98-1.53-.03L485.8.03l.96.02h.06a54.5 54.5 0 0 0 1.14.01h.04zm7.2.17l-4.67 149.92-1.52-.04L492.99.17l2.2.07zm7.19.27l-6.88 149.84-1.52-.06L500.19.42l2.2.1zm7.19.39l-9.1 149.72-1.52-.09L507.38.77h.2a79.03 79.03 0 0 1 2 .13zm7.18.49l-11.33 149.57-1.51-.11L514.56 1.23a520.92 520.92 0 0 1 2.2.16zm7.18.6l-13.56 149.38-1.5-.13L521.74 1.79l.52.05h.15l.03.01 1.49.13zm7.16.7l-15.78 149.17-1.51-.16L528.9 2.46h.06l.15.02.14.02h.03l1.66.17.08.01h.07zm7.15.8l-18.01 148.92-1.5-.18L536.07 3.24a575.57 575.57 0 0 1 2.18.26zm7.15.93l-20.25 148.62-1.5-.2L543.22 4.13a448.26 448.26 0 0 1 2.18.29zm7.12 1.02l-22.47 148.3-1.5-.21 21.8-148.41a1548.78 1548.78 0 0 1 2.17.32zm7.11 1.14l-24.7 147.95-1.49-.25L557.46 6.22l.43.07.1.01h.03l.79.14h.02a576.73 576.73 0 0 1 .8.14zm7.1 1.23L539.8 155.38l-1.49-.27L564.56 7.42l.8.15.1.01.09.02a466.48 466.48 0 0 1 1.18.21zm7.07 1.35L544.65 156.3l-1.48-.29L571.64 8.74l.6.11.2.04h.02c.44.1.89.18 1.34.27zm7.05 1.45L549.5 157.3l-1.48-.32L578.7 10.16h.02l.13.03c.27.06.52.1.8.17h.03l.15.04.2.04h.04l.22.05.05.01.18.04.33.07zm7.03 1.56l-33.57 146.2-1.48-.34 32.9-146.35.22.05.09.02h.01a470.34 470.34 0 0 1 1.5.34l.08.02.25.06zm7 1.67L559.11 159.5l-1.47-.36 35.1-145.83 1.22.29.08.02.08.02.76.19zm6.99 1.77l-37.98 145.1-1.46-.37 37.3-145.29.16.04 1.98.52zm6.94 1.87L568.65 162l-1.45-.4 39.5-144.7a489.15 489.15 0 0 1 2.11.58zm6.93 1.98l-42.35 143.9-1.44-.42 41.68-144.1a510.93 510.93 0 0 1 2.1.62zm6.89 2.09l-44.52 143.24-1.44-.45L620.53 20.9l2.1.65zm6.86 2.18L582.8 166.3l-1.43-.47L627.4 23.05l.58.2 1.5.48zm6.82 2.3L587.5 167.86l-1.43-.49 48.17-142.05a665834817093.65 665834817093.65 0 0 0 .59.2l.85.29h.04l.14.06.2.07h.02l.24.09zm6.8 2.4L592.13 169.5l-1.42-.51 50.31-141.31a519.42 519.42 0 0 1 1.4.5l.06.02.15.05.16.06.14.05.05.02.11.04zm6.75 2.49l-53.1 140.29-1.4-.53L647.8 30.15l1 .37.13.05a39.58 39.58 0 0 1 .55.2l.05.03.1.03.23.09zm6.71 2.6l-55.2 139.47-1.4-.55L654.52 32.7l.76.3h.02l.2.09.12.04.09.04.22.09.09.03.1.04.45.18zm6.68 2.7l-57.3 138.62-1.4-.57L661.2 35.38a1002.34 1002.34 0 0 1 2.04.84zm6.63 2.8l-59.39 137.74-1.39-.6 58.76-138 2.02.86zm6.59 2.9L615 178.75l-1.38-.61 60.83-137.12a837.2 837.2 0 0 1 .42.19l.16.07 1.43.64zm6.54 3L619.5 180.8l-1.37-.64L681.02 44a462.49 462.49 0 0 1 2 .93zm6.5 3.1l-65.55 134.91-1.36-.65 64.93-135.22.2.1.18.08.04.02.14.07.05.02.2.1.17.08.02.01.98.48zm6.46 3.2l-67.58 133.9-1.35-.67L694 50.23l1.9.95.04.02.03.01zm6.4 3.28l-69.59 132.9-1.34-.7 68.98-133.2.33.17.07.04.11.06.22.1a465.72 465.72 0 0 1 1.22.64zm6.35 3.4l-71.58 131.8-1.33-.71L706.8 56.85l.27.14 1.38.75.28.15zm6.3 3.48L641.47 192.1l-1.32-.74L713.1 60.3l1.92 1.08zm6.25 3.57l-75.5 129.61-1.31-.75 74.9-129.96 1.91 1.1zm6.2 3.67L650.02 197.1l-1.3-.78L725.58 67.5l.7.42.04.03.14.08.4.24.05.03a194.49 194.49 0 0 1 .56.33zm6.13 3.77l-79.36 127.28-1.28-.8 78.77-127.64L733 72l.13.09.47.29zm6.08 3.85l-81.26 126.09-1.27-.82 80.68-126.45 1.85 1.18zm6.03 3.95l-83.14 124.85-1.26-.84 82.56-125.23.18.12.1.07.04.02a580.06 580.06 0 0 1 1.52 1zm5.96 4.03l-85 123.6-1.25-.86 84.43-123.98 1.6 1.09.22.15zm5.9 4.13l-86.84 122.3-1.23-.87 86.28-122.7a452.1 452.1 0 0 1 1.78 1.26h.01zm5.84 4.21l-88.66 121-1.22-.9 88.1-121.4 1.78 1.3zm5.78 4.3l-90.46 119.66-1.21-.92 89.9-120.06h.02a520.87 520.87 0 0 1 .44.34l.18.13.13.1.02.01.98.74zm5.7 4.38l-92.23 118.3-1.2-.93 91.7-118.71.05.04.06.04.18.14.09.07.1.07.07.06 1.19.92zm5.65 4.47l-93.99 116.9-1.18-.94 93.46-117.33 1.71 1.37zm5.58 4.56L690.4 225.75l-1.17-.96 95.2-115.92.3.25.06.05.1.08.13.1.09.08.13.1.05.05.18.15.04.03.16.13.04.04.2.16.21.18zm5.5 4.63L694.2 228.95l-1.15-.98 96.91-114.5a511.62 511.62 0 0 1 1.68 1.43zm5.45 4.72L697.94 232.2l-1.14-1 98.61-113.03 1.04.9v.01l.16.14a84.56 84.56 0 0 1 .46.4zm5.37 4.8L701.64 235.5l-1.12-1.02L800.8 122.94l.06.06.02.01a466.1 466.1 0 0 1 1.56 1.4zm5.3 4.88L705.28 238.87l-1.1-1.03L806.11 127.8l1.61 1.5zm5.22 4.95L708.89 242.3l-1.1-1.05 103.58-108.51.28.27.07.07.08.08.09.08.95.9.12.12zm5.14 5.04L712.44 245.76l-1.08-1.07 105.18-106.95 1.56 1.55zm5.08 5.1l-107.24 104.9-1.06-1.08 106.75-105.37 1.55 1.57zm5 5.2l-108.8 103.26-1.04-1.1L826.65 148a458.36 458.36 0 0 1 1.52 1.6zm4.91 5.25L722.78 256.48l-1.03-1.11L831.6 153.22v.02l.18.18.02.02.16.18.02.02.73.79.01.01.08.08.29.32zm4.84 5.33L726.1 260.15l-1.01-1.12 111.36-100.5.1.13 1.37 1.51zm4.76 5.4l-113.3 98.3-1-1.13 112.85-98.82.34.38.05.06.14.16.05.06.14.15.01.02.72.82zm4.68 5.48l-114.75 96.6-.98-1.16 114.3-97.12 1.43 1.68zm4.6 5.54l-116.19 94.88-.96-1.17 115.75-95.41.94 1.14.07.09.05.06c.1.14.22.27.33.4zm4.5 5.61L738.9 275.34l-.94-1.19 117.15-93.67.05.05a60.42 60.42 0 0 1 .84 1.05l.14.18v.01l.31.39.04.04zm4.43 5.68l-118.96 91.37-.92-1.2 118.54-91.91a511.14 511.14 0 0 1 1.34 1.74zm4.35 5.74L744.93 283.2l-.9-1.21 119.9-90.13 1.32 1.76zm4.25 5.8L747.87 287.2l-.9-1.23 121.24-88.32.15.2a17.06 17.06 0 0 1 .16.21 504.31 504.31 0 0 1 .99 1.36zm4.17 5.88l-122.93 85.94-.88-1.24 122.55-86.5.68.97.06.08.06.09.46.66zm4.08 5.93l-124.2 84.1-.86-1.26 123.83-84.66 1.23 1.82zm4 6l-125.46 82.22-.83-1.27 125.07-82.8a489.78 489.78 0 0 1 1.22 1.84zm3.9 6.04l-126.68 80.34-.8-1.28 126.3-80.91a475.73 475.73 0 0 1 1.1 1.73l.08.12zm3.8 6.11L761.6 307.81l-.79-1.29 127.5-79.01a526.38 526.38 0 0 1 .3.49l.12.17.06.11.06.1.06.1.11.17.04.08.1.14.03.06.11.18.06.1.05.08.06.1zm3.73 6.17l-129.03 76.5-.77-1.3 128.67-77.1 1.13 1.9zm3.62 6.22l-130.16 74.55-.75-1.3 129.81-75.16.15.25.4.7a419.35 419.35 0 0 1 .55.96zm3.53 6.27l-131.26 72.6-.74-1.33 130.93-73.2a556.55 556.55 0 0 1 1.07 1.93zm3.44 6.33l-132.34 70.6-.72-1.32 132.02-71.22.38.71.04.06a106.28 106.28 0 0 1 .28.52l.04.09.06.1.24.46zm3.34 6.37l-133.39 68.62-.69-1.34 133.07-69.23.17.32.08.16.01.02.75 1.45zm3.25 6.43l-134.4 66.6-.68-1.35 134.1-67.22a626.26 626.26 0 0 1 .98 1.97zm3.14 6.48L778.11 338.2l-.65-1.36 135.1-65.19.94 1.99zm3.05 6.52L780.2 342.69l-.63-1.37 136.06-63.15.3.64v.02l.06.12.56 1.22zm2.96 6.57l-137.28 60.45-.61-1.38 137-61.08.75 1.69.14.32zm2.85 6.6l-138.18 58.38-.59-1.39 137.9-59h.01l.08.2.05.1.05.12.08.18c0 .03.02.05.03.08l.06.14.01.03.5 1.17zm2.75 6.66l-139.04 56.28-.57-1.4 138.78-56.91.17.42.05.11a536.54 536.54 0 0 1 .61 1.5zm2.65 6.7L787.9 360.87l-.55-1.4 139.62-54.82.38.97.03.08.02.05.37.95zm2.55 6.73l-140.68 52.05-.52-1.4 140.43-52.71a409.17 409.17 0 0 1 .77 2.06zm2.45 6.77L791.3 370.13l-.5-1.43 141.21-50.57a1411.86 1411.86 0 0 1 .74 2.07zm2.34 6.8l-142.18 47.8-.49-1.43 141.97-48.44.7 2.09zm2.24 6.85l-142.89 45.62-.46-1.43 142.68-46.28a508.1 508.1 0 0 1 .59 1.82v.02l.08.25zm2.14 6.88l-143.56 43.46-.44-1.45 143.36-44.12.64 2.1zm2.04 6.9L797.3 388.91l-.42-1.44 144.02-41.95.6 2.11zm1.93 6.94l-144.82 39.1-.4-1.45 144.64-39.77.13.49.03.09a38.9 38.9 0 0 1 .22.8l.2.74zm1.82 6.96l-145.39 36.91-.37-1.46 145.21-37.58.28 1.06v.02l.27 1.05zm1.72 7l-145.93 34.7-.35-1.46 145.76-35.38.08.32a511.55 511.55 0 0 1 .44 1.81zm1.61 7.01l-146.44 32.5-.33-1.47 146.29-33.17a513.61 513.61 0 0 1 .48 2.14zm1.5 7.04l-146.9 30.29-.31-1.48 146.77-30.96.45 2.15zm1.4 7.06l-147.34 28.07-.29-1.48L951.1 387.5l.22 1.13.04.2v.02l.16.8zm1.3 7.1l-147.75 25.83-.27-1.48 147.64-26.53v.06l.38 2.11zm1.19 7.09l-148.13 23.62-.24-1.5 148.02-24.3.08.52.02.08.25 1.58zm1.08 7.12L806.6 432.34l-.22-1.5 148.37-22.06.04.26v.02l.02.13c.1.6.18 1.17.26 1.76zm.97 7.13l-148.77 19.16-.2-1.5 148.69-19.84c.1.72.2 1.46.28 2.18zm.87 7.15l-149.04 16.93-.18-1.5 148.97-17.62.15 1.34.01.06.02.2v.05l.07.54zm.76 7.16l-149.28 14.7-.15-1.5 149.2-15.39c.04.26.06.53.09.8v.05l.14 1.34zm.65 7.17l-149.48 12.47-.13-1.51 149.42-13.15a447.31 447.31 0 0 1 .19 2.19zm.55 7.18l-149.65 10.24-.11-1.51 149.6-10.92.03.42.01.16.12 1.6zm.43 7.19l-149.78 8.01-.09-1.51 149.75-8.7a498.4 498.4 0 0 1 .12 2.2zm.34 7.19l-149.9 5.8-.05-1.52 149.86-6.48a480.9 480.9 0 0 1 .09 2.2zm.22 7.2L809.9 471.9l-.04-1.52 149.94-4.26.06 2.2zm.12 7.2l-150 1.37-.01-1.53 149.98-2.05.02 1.24v.17a687.45 687.45 0 0 1 0 .67v.12z"/></g></svg>