<svg xmlns="http://www.w3.org/2000/svg" xmlns:xlink="http://www.w3.org/1999/xlink" width="228" height="626" viewBox="0 0 228 626"><defs><clipPath id="a"><rect width="228" height="625.603" fill="none"/></clipPath><clipPath id="c"><rect width="228" height="626"/></clipPath></defs><g id="b" clip-path="url(#c)"><g clip-path="url(#a)"><g transform="translate(-1708.716 -3157)"><g transform="translate(1708.716 3588.222)"><circle cx="7.591" cy="7.591" r="7.591" fill="#f2f2f2"/><circle cx="2.457" cy="2.457" r="2.457" transform="translate(5.134 5.134)" fill="#959595"/><g transform="translate(35.47)"><circle cx="7.591" cy="7.591" r="7.591" fill="#f2f2f2"/><circle cx="2.457" cy="2.457" r="2.457" transform="translate(5.134 5.134)" fill="#959595"/></g><g transform="translate(70.939)"><circle cx="7.591" cy="7.591" r="7.591" fill="#f2f2f2"/><circle cx="2.457" cy="2.457" r="2.457" transform="translate(5.134 5.134)" fill="#959595"/></g><g transform="translate(106.409)"><circle cx="7.591" cy="7.591" r="7.591" fill="#f2f2f2"/><circle cx="2.457" cy="2.457" r="2.457" transform="translate(5.134 5.134)" fill="#959595"/></g><g transform="translate(141.879)"><circle cx="7.591" cy="7.591" r="7.591" fill="#f2f2f2"/><circle cx="2.457" cy="2.457" r="2.457" transform="translate(5.134 5.134)" fill="#959595"/></g><g transform="translate(177.349)"><circle cx="7.591" cy="7.591" r="7.591" fill="#f2f2f2"/><circle cx="2.457" cy="2.457" r="2.457" transform="translate(5.134 5.134)" fill="#959595"/></g><g transform="translate(212.818)"><circle cx="7.591" cy="7.591" r="7.591" fill="#f2f2f2"/><circle cx="2.457" cy="2.457" r="2.457" transform="translate(5.134 5.134)" fill="#959595"/></g><g transform="translate(0 35.286)"><circle cx="7.591" cy="7.591" r="7.591" fill="#f2f2f2"/><circle cx="2.457" cy="2.457" r="2.457" transform="translate(5.134 5.134)" fill="#959595"/></g><g transform="translate(35.47 35.286)"><circle cx="7.591" cy="7.591" r="7.591" fill="#f2f2f2"/><circle cx="2.457" cy="2.457" r="2.457" transform="translate(5.134 5.134)" fill="#959595"/></g><g transform="translate(70.939 35.286)"><circle cx="7.591" cy="7.591" r="7.591" fill="#f2f2f2"/><circle cx="2.457" cy="2.457" r="2.457" transform="translate(5.134 5.134)" fill="#959595"/></g><g transform="translate(106.409 35.286)"><circle cx="7.591" cy="7.591" r="7.591" fill="#f2f2f2"/><circle cx="2.457" cy="2.457" r="2.457" transform="translate(5.134 5.134)" fill="#959595"/></g><g transform="translate(141.879 35.286)"><circle cx="7.591" cy="7.591" r="7.591" fill="#f2f2f2"/><circle cx="2.457" cy="2.457" r="2.457" transform="translate(5.134 5.134)" fill="#959595"/></g><g transform="translate(177.349 35.286)"><circle cx="7.591" cy="7.591" r="7.591" fill="#f2f2f2"/><circle cx="2.457" cy="2.457" r="2.457" transform="translate(5.134 5.134)" fill="#959595"/></g><g transform="translate(212.818 35.286)"><circle cx="7.591" cy="7.591" r="7.591" fill="#f2f2f2"/><circle cx="2.457" cy="2.457" r="2.457" transform="translate(5.134 5.134)" fill="#959595"/></g><g transform="translate(0 71.956)"><circle cx="7.591" cy="7.591" r="7.591" fill="#f2f2f2"/><circle cx="2.457" cy="2.457" r="2.457" transform="translate(5.134 5.134)" fill="#959595"/></g><g transform="translate(35.47 71.956)"><circle cx="7.591" cy="7.591" r="7.591" fill="#f2f2f2"/><circle cx="2.457" cy="2.457" r="2.457" transform="translate(5.134 5.134)" fill="#959595"/></g><g transform="translate(70.939 71.956)"><circle cx="7.591" cy="7.591" r="7.591" fill="#f2f2f2"/><circle cx="2.457" cy="2.457" r="2.457" transform="translate(5.134 5.134)" fill="#959595"/></g><g transform="translate(106.409 71.956)"><circle cx="7.591" cy="7.591" r="7.591" fill="#f2f2f2"/><circle cx="2.457" cy="2.457" r="2.457" transform="translate(5.134 5.134)" fill="#959595"/></g><g transform="translate(141.879 71.956)"><circle cx="7.591" cy="7.591" r="7.591" fill="#f2f2f2"/><circle cx="2.457" cy="2.457" r="2.457" transform="translate(5.134 5.134)" fill="#959595"/></g><g transform="translate(177.349 71.956)"><circle cx="7.591" cy="7.591" r="7.591" fill="#f2f2f2"/><circle cx="2.457" cy="2.457" r="2.457" transform="translate(5.134 5.134)" fill="#959595"/></g><g transform="translate(212.818 71.956)"><circle cx="7.591" cy="7.591" r="7.591" fill="#f2f2f2"/><circle cx="2.457" cy="2.457" r="2.457" transform="translate(5.134 5.134)" fill="#959595"/></g><g transform="translate(0 107.243)"><circle cx="7.591" cy="7.591" r="7.591" fill="#f2f2f2"/><circle cx="2.457" cy="2.457" r="2.457" transform="translate(5.134 5.134)" fill="#959595"/></g><g transform="translate(35.47 107.243)"><circle cx="7.591" cy="7.591" r="7.591" fill="#f2f2f2"/><circle cx="2.457" cy="2.457" r="2.457" transform="translate(5.134 5.134)" fill="#959595"/></g><g transform="translate(70.939 107.243)"><circle cx="7.591" cy="7.591" r="7.591" fill="#f2f2f2"/><circle cx="2.457" cy="2.457" r="2.457" transform="translate(5.134 5.134)" fill="#959595"/></g><g transform="translate(106.409 107.243)"><circle cx="7.591" cy="7.591" r="7.591" fill="#f2f2f2"/><circle cx="2.457" cy="2.457" r="2.457" transform="translate(5.134 5.134)" fill="#959595"/></g><g transform="translate(141.879 107.243)"><circle cx="7.591" cy="7.591" r="7.591" fill="#f2f2f2"/><circle cx="2.457" cy="2.457" r="2.457" transform="translate(5.134 5.134)" fill="#959595"/></g><g transform="translate(177.349 107.243)"><circle cx="7.591" cy="7.591" r="7.591" fill="#f2f2f2"/><circle cx="2.457" cy="2.457" r="2.457" transform="translate(5.134 5.134)" fill="#959595"/></g><g transform="translate(212.818 107.243)"><circle cx="7.591" cy="7.591" r="7.591" fill="#f2f2f2"/><circle cx="2.457" cy="2.457" r="2.457" transform="translate(5.134 5.134)" fill="#959595"/></g><g transform="translate(0 143.913)"><circle cx="7.591" cy="7.591" r="7.591" fill="#f2f2f2"/><circle cx="2.457" cy="2.457" r="2.457" transform="translate(5.134 5.134)" fill="#959595"/></g><g transform="translate(35.47 143.913)"><circle cx="7.591" cy="7.591" r="7.591" fill="#f2f2f2"/><circle cx="2.457" cy="2.457" r="2.457" transform="translate(5.134 5.134)" fill="#959595"/></g><g transform="translate(70.939 143.913)"><circle cx="7.591" cy="7.591" r="7.591" fill="#f2f2f2"/><circle cx="2.457" cy="2.457" r="2.457" transform="translate(5.134 5.134)" fill="#959595"/></g><g transform="translate(106.409 143.913)"><circle cx="7.591" cy="7.591" r="7.591" fill="#f2f2f2"/><circle cx="2.457" cy="2.457" r="2.457" transform="translate(5.134 5.134)" fill="#959595"/></g><g transform="translate(141.879 143.913)"><circle cx="7.591" cy="7.591" r="7.591" fill="#f2f2f2"/><circle cx="2.457" cy="2.457" r="2.457" transform="translate(5.134 5.134)" fill="#959595"/></g><g transform="translate(177.349 143.913)"><circle cx="7.591" cy="7.591" r="7.591" fill="#f2f2f2"/><circle cx="2.457" cy="2.457" r="2.457" transform="translate(5.134 5.134)" fill="#959595"/></g><g transform="translate(212.818 143.913)"><circle cx="7.591" cy="7.591" r="7.591" fill="#f2f2f2"/><circle cx="2.457" cy="2.457" r="2.457" transform="translate(5.134 5.134)" fill="#959595"/></g><g transform="translate(0 179.199)"><circle cx="7.591" cy="7.591" r="7.591" fill="#f2f2f2"/><circle cx="2.457" cy="2.457" r="2.457" transform="translate(5.134 5.134)" fill="#959595"/></g><g transform="translate(35.47 179.199)"><circle cx="7.591" cy="7.591" r="7.591" fill="#f2f2f2"/><circle cx="2.457" cy="2.457" r="2.457" transform="translate(5.134 5.134)" fill="#959595"/></g><g transform="translate(70.939 179.199)"><circle cx="7.591" cy="7.591" r="7.591" fill="#f2f2f2"/><circle cx="2.457" cy="2.457" r="2.457" transform="translate(5.134 5.134)" fill="#959595"/></g><g transform="translate(106.409 179.199)"><circle cx="7.591" cy="7.591" r="7.591" fill="#f2f2f2"/><circle cx="2.457" cy="2.457" r="2.457" transform="translate(5.134 5.134)" fill="#959595"/></g><g transform="translate(141.879 179.199)"><circle cx="7.591" cy="7.591" r="7.591" fill="#f2f2f2"/><circle cx="2.457" cy="2.457" r="2.457" transform="translate(5.134 5.134)" fill="#959595"/></g><g transform="translate(177.349 179.199)"><circle cx="7.591" cy="7.591" r="7.591" fill="#f2f2f2"/><circle cx="2.457" cy="2.457" r="2.457" transform="translate(5.134 5.134)" fill="#959595"/></g><g transform="translate(212.818 179.199)"><circle cx="7.591" cy="7.591" r="7.591" fill="#f2f2f2"/><circle cx="2.457" cy="2.457" r="2.457" transform="translate(5.134 5.134)" fill="#959595"/></g></g><g transform="translate(1708.716 3372.611)"><circle cx="7.591" cy="7.591" r="7.591" fill="#f2f2f2"/><circle cx="2.457" cy="2.457" r="2.457" transform="translate(5.134 5.134)" fill="#959595"/><g transform="translate(35.47)"><circle cx="7.591" cy="7.591" r="7.591" fill="#f2f2f2"/><circle cx="2.457" cy="2.457" r="2.457" transform="translate(5.134 5.134)" fill="#959595"/></g><g transform="translate(70.939)"><circle cx="7.591" cy="7.591" r="7.591" fill="#f2f2f2"/><circle cx="2.457" cy="2.457" r="2.457" transform="translate(5.134 5.134)" fill="#959595"/></g><g transform="translate(106.409)"><circle cx="7.591" cy="7.591" r="7.591" fill="#f2f2f2"/><circle cx="2.457" cy="2.457" r="2.457" transform="translate(5.134 5.134)" fill="#959595"/></g><g transform="translate(141.879)"><circle cx="7.591" cy="7.591" r="7.591" fill="#f2f2f2"/><circle cx="2.457" cy="2.457" r="2.457" transform="translate(5.134 5.134)" fill="#959595"/></g><g transform="translate(177.349)"><circle cx="7.591" cy="7.591" r="7.591" fill="#f2f2f2"/><circle cx="2.457" cy="2.457" r="2.457" transform="translate(5.134 5.134)" fill="#959595"/></g><g transform="translate(212.818)"><circle cx="7.591" cy="7.591" r="7.591" fill="#f2f2f2"/><circle cx="2.457" cy="2.457" r="2.457" transform="translate(5.134 5.134)" fill="#959595"/></g><g transform="translate(0 35.286)"><circle cx="7.591" cy="7.591" r="7.591" fill="#f2f2f2"/><circle cx="2.457" cy="2.457" r="2.457" transform="translate(5.134 5.134)" fill="#959595"/></g><g transform="translate(35.47 35.286)"><circle cx="7.591" cy="7.591" r="7.591" fill="#f2f2f2"/><circle cx="2.457" cy="2.457" r="2.457" transform="translate(5.134 5.134)" fill="#959595"/></g><g transform="translate(70.939 35.286)"><circle cx="7.591" cy="7.591" r="7.591" fill="#f2f2f2"/><circle cx="2.457" cy="2.457" r="2.457" transform="translate(5.134 5.134)" fill="#959595"/></g><g transform="translate(106.409 35.286)"><circle cx="7.591" cy="7.591" r="7.591" fill="#f2f2f2"/><circle cx="2.457" cy="2.457" r="2.457" transform="translate(5.134 5.134)" fill="#959595"/></g><g transform="translate(141.879 35.286)"><circle cx="7.591" cy="7.591" r="7.591" fill="#f2f2f2"/><circle cx="2.457" cy="2.457" r="2.457" transform="translate(5.134 5.134)" fill="#959595"/></g><g transform="translate(177.349 35.286)"><circle cx="7.591" cy="7.591" r="7.591" fill="#f2f2f2"/><circle cx="2.457" cy="2.457" r="2.457" transform="translate(5.134 5.134)" fill="#959595"/></g><g transform="translate(212.818 35.286)"><circle cx="7.591" cy="7.591" r="7.591" fill="#f2f2f2"/><circle cx="2.457" cy="2.457" r="2.457" transform="translate(5.134 5.134)" fill="#959595"/></g><g transform="translate(0 71.956)"><circle cx="7.591" cy="7.591" r="7.591" fill="#f2f2f2"/><circle cx="2.457" cy="2.457" r="2.457" transform="translate(5.134 5.134)" fill="#959595"/></g><g transform="translate(35.47 71.956)"><circle cx="7.591" cy="7.591" r="7.591" fill="#f2f2f2"/><circle cx="2.457" cy="2.457" r="2.457" transform="translate(5.134 5.134)" fill="#959595"/></g><g transform="translate(70.939 71.956)"><circle cx="7.591" cy="7.591" r="7.591" fill="#f2f2f2"/><circle cx="2.457" cy="2.457" r="2.457" transform="translate(5.134 5.134)" fill="#959595"/></g><g transform="translate(106.409 71.956)"><circle cx="7.591" cy="7.591" r="7.591" fill="#f2f2f2"/><circle cx="2.457" cy="2.457" r="2.457" transform="translate(5.134 5.134)" fill="#959595"/></g><g transform="translate(141.879 71.956)"><circle cx="7.591" cy="7.591" r="7.591" fill="#f2f2f2"/><circle cx="2.457" cy="2.457" r="2.457" transform="translate(5.134 5.134)" fill="#959595"/></g><g transform="translate(177.349 71.956)"><circle cx="7.591" cy="7.591" r="7.591" fill="#f2f2f2"/><circle cx="2.457" cy="2.457" r="2.457" transform="translate(5.134 5.134)" fill="#959595"/></g><g transform="translate(212.818 71.956)"><circle cx="7.591" cy="7.591" r="7.591" fill="#f2f2f2"/><circle cx="2.457" cy="2.457" r="2.457" transform="translate(5.134 5.134)" fill="#959595"/></g><g transform="translate(0 107.243)"><circle cx="7.591" cy="7.591" r="7.591" fill="#f2f2f2"/><circle cx="2.457" cy="2.457" r="2.457" transform="translate(5.134 5.134)" fill="#959595"/></g><g transform="translate(35.47 107.243)"><circle cx="7.591" cy="7.591" r="7.591" fill="#f2f2f2"/><circle cx="2.457" cy="2.457" r="2.457" transform="translate(5.134 5.134)" fill="#959595"/></g><g transform="translate(70.939 107.243)"><circle cx="7.591" cy="7.591" r="7.591" fill="#f2f2f2"/><circle cx="2.457" cy="2.457" r="2.457" transform="translate(5.134 5.134)" fill="#959595"/></g><g transform="translate(106.409 107.243)"><circle cx="7.591" cy="7.591" r="7.591" fill="#f2f2f2"/><circle cx="2.457" cy="2.457" r="2.457" transform="translate(5.134 5.134)" fill="#959595"/></g><g transform="translate(141.879 107.243)"><circle cx="7.591" cy="7.591" r="7.591" fill="#f2f2f2"/><circle cx="2.457" cy="2.457" r="2.457" transform="translate(5.134 5.134)" fill="#959595"/></g><g transform="translate(177.349 107.243)"><circle cx="7.591" cy="7.591" r="7.591" fill="#f2f2f2"/><circle cx="2.457" cy="2.457" r="2.457" transform="translate(5.134 5.134)" fill="#959595"/></g><g transform="translate(212.818 107.243)"><circle cx="7.591" cy="7.591" r="7.591" fill="#f2f2f2"/><circle cx="2.457" cy="2.457" r="2.457" transform="translate(5.134 5.134)" fill="#959595"/></g><g transform="translate(0 143.913)"><circle cx="7.591" cy="7.591" r="7.591" fill="#f2f2f2"/><circle cx="2.457" cy="2.457" r="2.457" transform="translate(5.134 5.134)" fill="#959595"/></g><g transform="translate(35.47 143.913)"><circle cx="7.591" cy="7.591" r="7.591" fill="#f2f2f2"/><circle cx="2.457" cy="2.457" r="2.457" transform="translate(5.134 5.134)" fill="#959595"/></g><g transform="translate(70.939 143.913)"><circle cx="7.591" cy="7.591" r="7.591" fill="#f2f2f2"/><circle cx="2.457" cy="2.457" r="2.457" transform="translate(5.134 5.134)" fill="#959595"/></g><g transform="translate(106.409 143.913)"><circle cx="7.591" cy="7.591" r="7.591" fill="#f2f2f2"/><circle cx="2.457" cy="2.457" r="2.457" transform="translate(5.134 5.134)" fill="#959595"/></g><g transform="translate(141.879 143.913)"><circle cx="7.591" cy="7.591" r="7.591" fill="#f2f2f2"/><circle cx="2.457" cy="2.457" r="2.457" transform="translate(5.134 5.134)" fill="#959595"/></g><g transform="translate(177.349 143.913)"><circle cx="7.591" cy="7.591" r="7.591" fill="#f2f2f2"/><circle cx="2.457" cy="2.457" r="2.457" transform="translate(5.134 5.134)" fill="#959595"/></g><g transform="translate(212.818 143.913)"><circle cx="7.591" cy="7.591" r="7.591" fill="#f2f2f2"/><circle cx="2.457" cy="2.457" r="2.457" transform="translate(5.134 5.134)" fill="#959595"/></g><g transform="translate(0 179.199)"><circle cx="7.591" cy="7.591" r="7.591" fill="#f2f2f2"/><circle cx="2.457" cy="2.457" r="2.457" transform="translate(5.134 5.134)" fill="#959595"/></g><g transform="translate(35.47 179.199)"><circle cx="7.591" cy="7.591" r="7.591" fill="#f2f2f2"/><circle cx="2.457" cy="2.457" r="2.457" transform="translate(5.134 5.134)" fill="#959595"/></g><g transform="translate(70.939 179.199)"><circle cx="7.591" cy="7.591" r="7.591" fill="#f2f2f2"/><circle cx="2.457" cy="2.457" r="2.457" transform="translate(5.134 5.134)" fill="#959595"/></g><g transform="translate(106.409 179.199)"><circle cx="7.591" cy="7.591" r="7.591" fill="#f2f2f2"/><circle cx="2.457" cy="2.457" r="2.457" transform="translate(5.134 5.134)" fill="#959595"/></g><g transform="translate(141.879 179.199)"><circle cx="7.591" cy="7.591" r="7.591" fill="#f2f2f2"/><circle cx="2.457" cy="2.457" r="2.457" transform="translate(5.134 5.134)" fill="#959595"/></g><g transform="translate(177.349 179.199)"><circle cx="7.591" cy="7.591" r="7.591" fill="#f2f2f2"/><circle cx="2.457" cy="2.457" r="2.457" transform="translate(5.134 5.134)" fill="#959595"/></g><g transform="translate(212.818 179.199)"><circle cx="7.591" cy="7.591" r="7.591" fill="#f2f2f2"/><circle cx="2.457" cy="2.457" r="2.457" transform="translate(5.134 5.134)" fill="#959595"/></g></g><g transform="translate(1708.716 3157)"><circle cx="7.591" cy="7.591" r="7.591" fill="#f2f2f2"/><circle cx="2.457" cy="2.457" r="2.457" transform="translate(5.134 5.134)" fill="#959595"/><g transform="translate(35.47)"><circle cx="7.591" cy="7.591" r="7.591" fill="#f2f2f2"/><circle cx="2.457" cy="2.457" r="2.457" transform="translate(5.134 5.134)" fill="#959595"/></g><g transform="translate(70.939)"><circle cx="7.591" cy="7.591" r="7.591" fill="#f2f2f2"/><circle cx="2.457" cy="2.457" r="2.457" transform="translate(5.134 5.134)" fill="#959595"/></g><g transform="translate(106.409)"><circle cx="7.591" cy="7.591" r="7.591" fill="#f2f2f2"/><circle cx="2.457" cy="2.457" r="2.457" transform="translate(5.134 5.134)" fill="#959595"/></g><g transform="translate(141.879)"><circle cx="7.591" cy="7.591" r="7.591" fill="#f2f2f2"/><circle cx="2.457" cy="2.457" r="2.457" transform="translate(5.134 5.134)" fill="#959595"/></g><g transform="translate(177.349)"><circle cx="7.591" cy="7.591" r="7.591" fill="#f2f2f2"/><circle cx="2.457" cy="2.457" r="2.457" transform="translate(5.134 5.134)" fill="#959595"/></g><g transform="translate(212.818)"><circle cx="7.591" cy="7.591" r="7.591" fill="#f2f2f2"/><circle cx="2.457" cy="2.457" r="2.457" transform="translate(5.134 5.134)" fill="#959595"/></g><g transform="translate(0 35.286)"><circle cx="7.591" cy="7.591" r="7.591" fill="#f2f2f2"/><circle cx="2.457" cy="2.457" r="2.457" transform="translate(5.134 5.134)" fill="#959595"/></g><g transform="translate(35.47 35.286)"><circle cx="7.591" cy="7.591" r="7.591" fill="#f2f2f2"/><circle cx="2.457" cy="2.457" r="2.457" transform="translate(5.134 5.134)" fill="#959595"/></g><g transform="translate(70.939 35.286)"><circle cx="7.591" cy="7.591" r="7.591" fill="#f2f2f2"/><circle cx="2.457" cy="2.457" r="2.457" transform="translate(5.134 5.134)" fill="#959595"/></g><g transform="translate(106.409 35.286)"><circle cx="7.591" cy="7.591" r="7.591" fill="#f2f2f2"/><circle cx="2.457" cy="2.457" r="2.457" transform="translate(5.134 5.134)" fill="#959595"/></g><g transform="translate(141.879 35.286)"><circle cx="7.591" cy="7.591" r="7.591" fill="#f2f2f2"/><circle cx="2.457" cy="2.457" r="2.457" transform="translate(5.134 5.134)" fill="#959595"/></g><g transform="translate(177.349 35.286)"><circle cx="7.591" cy="7.591" r="7.591" fill="#f2f2f2"/><circle cx="2.457" cy="2.457" r="2.457" transform="translate(5.134 5.134)" fill="#959595"/></g><g transform="translate(212.818 35.286)"><circle cx="7.591" cy="7.591" r="7.591" fill="#f2f2f2"/><circle cx="2.457" cy="2.457" r="2.457" transform="translate(5.134 5.134)" fill="#959595"/></g><g transform="translate(0 71.956)"><circle cx="7.591" cy="7.591" r="7.591" fill="#f2f2f2"/><circle cx="2.457" cy="2.457" r="2.457" transform="translate(5.134 5.134)" fill="#959595"/></g><g transform="translate(35.47 71.956)"><circle cx="7.591" cy="7.591" r="7.591" fill="#f2f2f2"/><circle cx="2.457" cy="2.457" r="2.457" transform="translate(5.134 5.134)" fill="#959595"/></g><g transform="translate(70.939 71.956)"><circle cx="7.591" cy="7.591" r="7.591" fill="#f2f2f2"/><circle cx="2.457" cy="2.457" r="2.457" transform="translate(5.134 5.134)" fill="#959595"/></g><g transform="translate(106.409 71.956)"><circle cx="7.591" cy="7.591" r="7.591" fill="#f2f2f2"/><circle cx="2.457" cy="2.457" r="2.457" transform="translate(5.134 5.134)" fill="#959595"/></g><g transform="translate(141.879 71.956)"><circle cx="7.591" cy="7.591" r="7.591" fill="#f2f2f2"/><circle cx="2.457" cy="2.457" r="2.457" transform="translate(5.134 5.134)" fill="#959595"/></g><g transform="translate(177.349 71.956)"><circle cx="7.591" cy="7.591" r="7.591" fill="#f2f2f2"/><circle cx="2.457" cy="2.457" r="2.457" transform="translate(5.134 5.134)" fill="#959595"/></g><g transform="translate(212.818 71.956)"><circle cx="7.591" cy="7.591" r="7.591" fill="#f2f2f2"/><circle cx="2.457" cy="2.457" r="2.457" transform="translate(5.134 5.134)" fill="#959595"/></g><g transform="translate(0 107.243)"><circle cx="7.591" cy="7.591" r="7.591" fill="#f2f2f2"/><circle cx="2.457" cy="2.457" r="2.457" transform="translate(5.134 5.134)" fill="#959595"/></g><g transform="translate(35.47 107.243)"><circle cx="7.591" cy="7.591" r="7.591" fill="#f2f2f2"/><circle cx="2.457" cy="2.457" r="2.457" transform="translate(5.134 5.134)" fill="#959595"/></g><g transform="translate(70.939 107.243)"><circle cx="7.591" cy="7.591" r="7.591" fill="#f2f2f2"/><circle cx="2.457" cy="2.457" r="2.457" transform="translate(5.134 5.134)" fill="#959595"/></g><g transform="translate(106.409 107.243)"><circle cx="7.591" cy="7.591" r="7.591" fill="#f2f2f2"/><circle cx="2.457" cy="2.457" r="2.457" transform="translate(5.134 5.134)" fill="#959595"/></g><g transform="translate(141.879 107.243)"><circle cx="7.591" cy="7.591" r="7.591" fill="#f2f2f2"/><circle cx="2.457" cy="2.457" r="2.457" transform="translate(5.134 5.134)" fill="#959595"/></g><g transform="translate(177.349 107.243)"><circle cx="7.591" cy="7.591" r="7.591" fill="#f2f2f2"/><circle cx="2.457" cy="2.457" r="2.457" transform="translate(5.134 5.134)" fill="#959595"/></g><g transform="translate(212.818 107.243)"><circle cx="7.591" cy="7.591" r="7.591" fill="#f2f2f2"/><circle cx="2.457" cy="2.457" r="2.457" transform="translate(5.134 5.134)" fill="#959595"/></g><g transform="translate(0 143.913)"><circle cx="7.591" cy="7.591" r="7.591" fill="#f2f2f2"/><circle cx="2.457" cy="2.457" r="2.457" transform="translate(5.134 5.134)" fill="#959595"/></g><g transform="translate(35.47 143.913)"><circle cx="7.591" cy="7.591" r="7.591" fill="#f2f2f2"/><circle cx="2.457" cy="2.457" r="2.457" transform="translate(5.134 5.134)" fill="#959595"/></g><g transform="translate(70.939 143.913)"><circle cx="7.591" cy="7.591" r="7.591" fill="#f2f2f2"/><circle cx="2.457" cy="2.457" r="2.457" transform="translate(5.134 5.134)" fill="#959595"/></g><g transform="translate(106.409 143.913)"><circle cx="7.591" cy="7.591" r="7.591" fill="#f2f2f2"/><circle cx="2.457" cy="2.457" r="2.457" transform="translate(5.134 5.134)" fill="#959595"/></g><g transform="translate(141.879 143.913)"><circle cx="7.591" cy="7.591" r="7.591" fill="#f2f2f2"/><circle cx="2.457" cy="2.457" r="2.457" transform="translate(5.134 5.134)" fill="#959595"/></g><g transform="translate(177.349 143.913)"><circle cx="7.591" cy="7.591" r="7.591" fill="#f2f2f2"/><circle cx="2.457" cy="2.457" r="2.457" transform="translate(5.134 5.134)" fill="#959595"/></g><g transform="translate(212.818 143.913)"><circle cx="7.591" cy="7.591" r="7.591" fill="#f2f2f2"/><circle cx="2.457" cy="2.457" r="2.457" transform="translate(5.134 5.134)" fill="#959595"/></g><g transform="translate(0 179.199)"><circle cx="7.591" cy="7.591" r="7.591" fill="#f2f2f2"/><circle cx="2.457" cy="2.457" r="2.457" transform="translate(5.134 5.134)" fill="#959595"/></g><g transform="translate(35.47 179.199)"><circle cx="7.591" cy="7.591" r="7.591" fill="#f2f2f2"/><circle cx="2.457" cy="2.457" r="2.457" transform="translate(5.134 5.134)" fill="#959595"/></g><g transform="translate(70.939 179.199)"><circle cx="7.591" cy="7.591" r="7.591" fill="#f2f2f2"/><circle cx="2.457" cy="2.457" r="2.457" transform="translate(5.134 5.134)" fill="#959595"/></g><g transform="translate(106.409 179.199)"><circle cx="7.591" cy="7.591" r="7.591" fill="#f2f2f2"/><circle cx="2.457" cy="2.457" r="2.457" transform="translate(5.134 5.134)" fill="#959595"/></g><g transform="translate(141.879 179.199)"><circle cx="7.591" cy="7.591" r="7.591" fill="#f2f2f2"/><circle cx="2.457" cy="2.457" r="2.457" transform="translate(5.134 5.134)" fill="#959595"/></g><g transform="translate(177.349 179.199)"><circle cx="7.591" cy="7.591" r="7.591" fill="#f2f2f2"/><circle cx="2.457" cy="2.457" r="2.457" transform="translate(5.134 5.134)" fill="#959595"/></g><g transform="translate(212.818 179.199)"><circle cx="7.591" cy="7.591" r="7.591" fill="#f2f2f2"/><circle cx="2.457" cy="2.457" r="2.457" transform="translate(5.134 5.134)" fill="#959595"/></g></g></g></g></g></svg>