<svg xmlns="http://www.w3.org/2000/svg" xmlns:xlink="http://www.w3.org/1999/xlink" width="308" height="79" viewBox="0 0 308 79"><defs><clipPath id="b"><rect width="308" height="79"/></clipPath></defs><g id="a" clip-path="url(#b)"><g transform="translate(-38.83 -4521.256)"><g transform="translate(183.649 4521.293) rotate(90)"><g transform="translate(-0.037)"><circle cx="6.91" cy="6.91" r="6.91" fill="#f2f2f2"/><circle cx="2.237" cy="2.237" r="2.237" transform="translate(4.673 4.673)" fill="#959595"/></g><g transform="translate(31.448)"><circle cx="6.91" cy="6.91" r="6.91" transform="translate(0)" fill="#f2f2f2"/><circle cx="2.237" cy="2.237" r="2.237" transform="translate(4.673 4.673)" fill="#959595"/></g><g transform="translate(64.452)"><circle cx="6.91" cy="6.91" r="6.91" fill="#f2f2f2"/><circle cx="2.237" cy="2.237" r="2.237" transform="translate(4.673 4.673)" fill="#959595"/></g><g transform="translate(-0.037 32.12)"><circle cx="6.91" cy="6.91" r="6.91" fill="#f2f2f2"/><circle cx="2.237" cy="2.237" r="2.237" transform="translate(4.673 4.673)" fill="#959595"/></g><g transform="translate(31.448 32.12)"><circle cx="6.91" cy="6.91" r="6.91" transform="translate(0)" fill="#f2f2f2"/><circle cx="2.237" cy="2.237" r="2.237" transform="translate(4.673 4.673)" fill="#959595"/></g><g transform="translate(64.452 32.12)"><circle cx="6.91" cy="6.91" r="6.91" fill="#f2f2f2"/><circle cx="2.237" cy="2.237" r="2.237" transform="translate(4.673 4.673)" fill="#959595"/></g><g transform="translate(-0.037 65.5)"><circle cx="6.91" cy="6.91" r="6.91" fill="#f2f2f2"/><circle cx="2.237" cy="2.237" r="2.237" transform="translate(4.673 4.673)" fill="#959595"/></g><g transform="translate(31.448 65.5)"><circle cx="6.91" cy="6.91" r="6.91" transform="translate(0)" fill="#f2f2f2"/><circle cx="2.237" cy="2.237" r="2.237" transform="translate(4.673 4.673)" fill="#959595"/></g><g transform="translate(64.452 65.5)"><circle cx="6.91" cy="6.91" r="6.91" fill="#f2f2f2"/><circle cx="2.237" cy="2.237" r="2.237" transform="translate(4.673 4.673)" fill="#959595"/></g><g transform="translate(-0.037 97.62)"><circle cx="6.91" cy="6.91" r="6.91" fill="#f2f2f2"/><circle cx="2.237" cy="2.237" r="2.237" transform="translate(4.673 4.673)" fill="#959595"/></g><g transform="translate(31.448 97.62)"><circle cx="6.91" cy="6.91" r="6.91" transform="translate(0)" fill="#f2f2f2"/><circle cx="2.237" cy="2.237" r="2.237" transform="translate(4.673 4.673)" fill="#959595"/></g><g transform="translate(64.452 97.62)"><circle cx="6.91" cy="6.91" r="6.91" fill="#f2f2f2"/><circle cx="2.237" cy="2.237" r="2.237" transform="translate(4.673 4.673)" fill="#959595"/></g><g transform="translate(-0.037 131)"><circle cx="6.91" cy="6.91" r="6.91" fill="#f2f2f2"/><circle cx="2.237" cy="2.237" r="2.237" transform="translate(4.673 4.673)" fill="#959595"/></g><g transform="translate(31.448 131)"><circle cx="6.91" cy="6.91" r="6.91" transform="translate(0)" fill="#f2f2f2"/><circle cx="2.237" cy="2.237" r="2.237" transform="translate(4.673 4.673)" fill="#959595"/></g><g transform="translate(64.452 131)"><circle cx="6.91" cy="6.91" r="6.91" fill="#f2f2f2"/><circle cx="2.237" cy="2.237" r="2.237" transform="translate(4.673 4.673)" fill="#959595"/></g></g><g transform="translate(346.83 4521.293) rotate(90)"><g transform="translate(-0.037)"><circle cx="6.91" cy="6.91" r="6.91" fill="#f2f2f2"/><circle cx="2.237" cy="2.237" r="2.237" transform="translate(4.673 4.673)" fill="#959595"/></g><g transform="translate(31.493)"><circle cx="6.91" cy="6.91" r="6.91" transform="translate(0)" fill="#f2f2f2"/><circle cx="2.237" cy="2.237" r="2.237" transform="translate(4.673 4.673)" fill="#959595"/></g><g transform="translate(64.452)"><circle cx="6.91" cy="6.91" r="6.91" fill="#f2f2f2"/><circle cx="2.237" cy="2.237" r="2.237" transform="translate(4.673 4.673)" fill="#959595"/></g><g transform="translate(-0.037 32.12)"><circle cx="6.91" cy="6.91" r="6.91" fill="#f2f2f2"/><circle cx="2.237" cy="2.237" r="2.237" transform="translate(4.673 4.673)" fill="#959595"/></g><g transform="translate(31.493 32.12)"><circle cx="6.91" cy="6.91" r="6.91" transform="translate(0)" fill="#f2f2f2"/><circle cx="2.237" cy="2.237" r="2.237" transform="translate(4.673 4.673)" fill="#959595"/></g><g transform="translate(64.452 32.12)"><circle cx="6.91" cy="6.91" r="6.91" fill="#f2f2f2"/><circle cx="2.237" cy="2.237" r="2.237" transform="translate(4.673 4.673)" fill="#959595"/></g><g transform="translate(-0.037 65.5)"><circle cx="6.91" cy="6.91" r="6.91" fill="#f2f2f2"/><circle cx="2.237" cy="2.237" r="2.237" transform="translate(4.673 4.673)" fill="#959595"/></g><g transform="translate(31.493 65.5)"><circle cx="6.91" cy="6.91" r="6.91" transform="translate(0)" fill="#f2f2f2"/><circle cx="2.237" cy="2.237" r="2.237" transform="translate(4.673 4.673)" fill="#959595"/></g><g transform="translate(64.452 65.5)"><circle cx="6.91" cy="6.91" r="6.91" fill="#f2f2f2"/><circle cx="2.237" cy="2.237" r="2.237" transform="translate(4.673 4.673)" fill="#959595"/></g><g transform="translate(-0.037 97.62)"><circle cx="6.91" cy="6.91" r="6.91" fill="#f2f2f2"/><circle cx="2.237" cy="2.237" r="2.237" transform="translate(4.673 4.673)" fill="#959595"/></g><g transform="translate(31.493 97.62)"><circle cx="6.91" cy="6.91" r="6.91" transform="translate(0)" fill="#f2f2f2"/><circle cx="2.237" cy="2.237" r="2.237" transform="translate(4.673 4.673)" fill="#959595"/></g><g transform="translate(64.452 97.62)"><circle cx="6.91" cy="6.91" r="6.91" fill="#f2f2f2"/><circle cx="2.237" cy="2.237" r="2.237" transform="translate(4.673 4.673)" fill="#959595"/></g><g transform="translate(-0.037 131)"><circle cx="6.91" cy="6.91" r="6.91" fill="#f2f2f2"/><circle cx="2.237" cy="2.237" r="2.237" transform="translate(4.673 4.673)" fill="#959595"/></g><g transform="translate(31.493 131)"><circle cx="6.91" cy="6.91" r="6.91" transform="translate(0)" fill="#f2f2f2"/><circle cx="2.237" cy="2.237" r="2.237" transform="translate(4.673 4.673)" fill="#959595"/></g><g transform="translate(64.452 131)"><circle cx="6.91" cy="6.91" r="6.91" fill="#f2f2f2"/><circle cx="2.237" cy="2.237" r="2.237" transform="translate(4.673 4.673)" fill="#959595"/></g></g></g></g></svg>